<?xml version="1.0" encoding="utf-8" ?><svg xmlns="http://www.w3.org/2000/svg" xmlns:xlink="http://www.w3.org/1999/xlink" width="920" height="920" viewBox="0 0 920 920"><path fill="#FF8B28" transform="scale(0.898438 0.898438)" d="M501.034 184.75C501.395 184.717 501.757 184.689 502.119 184.666C516.751 183.853 534.909 185.024 549.406 186.672C616.702 194.022 680.04 222.148 730.619 267.144C797.166 326.325 837.192 409.728 841.728 498.668C847.045 591.577 815.688 674.595 753.989 743.546C705.004 797.704 639.547 834.222 567.732 847.458C552.388 850.253 537.706 851.533 522.19 852.383C435.048 854.947 353.397 821.933 289.634 763.468C221.316 700.825 185.832 623.547 181.082 531.706C176.606 444.498 207.292 359.138 266.27 294.742C326.87 228.434 411.301 188.877 501.034 184.75ZM702.146 498.695C698.279 503.087 694.035 507.249 690.523 511.865C691.734 514.712 692.011 515.411 692.654 518.463C690.766 527.069 683.565 530.379 680.953 537.959C675.548 553.646 689.489 571.242 670.641 583.243C661.176 589.27 649.569 588.549 639.082 586.118C609.217 579.197 605.799 569.096 576.367 587.236C572.473 589.636 558.11 600.844 555.644 600.675C551.909 594.459 573.904 583.005 578.075 580.318C583.752 576.663 591.055 574.266 597.514 572.566C590.005 569.24 519.113 537.33 523.741 527.752C526.086 527.277 528.347 528.408 530.294 529.721C535.976 533.551 541.043 538.048 546.956 541.609C570.794 555.964 632.446 587.014 660.772 581.554C665.537 580.635 670.154 578.378 672.814 574.17C680.312 562.308 670.62 547.187 676.097 535.225C677.801 531.503 680.89 528.604 683.423 525.447C685.152 523.293 687.913 520.019 687.024 517.054C686.764 516.187 686.386 516.092 685.71 515.573C683.595 515.573 681.64 515.98 679.494 516.102C675.124 516.351 660.372 513.875 659.753 508.869C661.639 505.666 688.185 494.275 692.903 492.646C690.44 484.535 690.256 478.619 695.315 471.501C691.258 471.573 685.384 472.02 681.829 470.375L681.155 469.423C681.454 468.672 682.388 467.012 683.257 466.879C693.392 465.324 710.395 468.921 716.926 458.539C719.651 454.208 711.108 444.135 708.562 440.461C700.689 429.099 691.014 417.027 687.639 403.421C684.938 391.997 691.579 384.093 693.743 373.588C695.484 365.143 695.288 355.568 694.569 347.024C692.038 316.939 682.282 294.852 667.305 269.341C662.582 295.3 655.559 316.422 641.097 338.963C638.318 343.294 634.247 349.812 630.997 353.579C647.263 352.599 662.119 351.041 677.42 357.78C681.666 359.651 689.254 361.587 689.132 367.562C688.92 373.742 683.864 376.403 678.909 378.504C665.311 363.113 641.689 361.782 622.661 364.668C616.482 370.492 611.553 376.723 604.957 382.448C570.242 412.579 537.52 424.809 493.471 433.876C481.135 446.312 470.195 458.25 469.298 478.003C468.261 500.833 494.836 524.198 515.645 506.867C523.097 500.66 524.148 483.404 515.969 477.051C512.852 474.133 510.363 474.63 506.864 474.449C501.363 473.656 497.205 486.823 492.263 482.676C487.882 478.998 492.153 469.827 495.52 467.222C513.9 452.976 539.194 473.18 535.959 494.486C534.255 505.715 529.935 514.939 520.864 522.17C497.365 540.902 457.711 537.889 439.08 513.539C422.887 492.375 424.629 462.814 436.532 440.19C430.72 440.566 426.313 440.96 420.528 441.768C411.029 451.1 407.436 456.066 403.802 468.823C415.049 484.14 428.045 499.026 431.36 518.491C433.845 536.308 431.118 553.842 420.082 568.533C411.049 580.363 397.7 588.135 382.953 590.149C377.233 590.9 371.318 591.036 365.674 592.225C335.88 598.498 308.024 617.34 291.275 642.787C289.23 645.894 287.076 648.902 285.105 652.051C302.851 634.342 319.395 622.532 344.918 618.112C343.328 645.256 339.642 667.706 318.173 687.002C305.717 698.197 290.896 703.184 277.054 711.21C285.216 721.986 294.79 731.853 304.555 741.176C351.087 785.886 410.505 814.823 474.396 823.888C507.808 828.521 537.904 826.439 570.993 821.195C559.553 808.325 538.034 784.626 523.358 775.926L522.587 775.939C514.53 776.117 501.069 779.69 492.544 781.274C462.893 786.784 438.133 778.065 416.402 757.602C407.02 748.769 396.465 734.922 390.964 723.127C417.503 713.784 446.492 709.435 472.766 722.064C496.296 733.375 508.902 751.7 526.335 769.844C534.204 778.035 543.941 786.658 552.385 794.412C540.934 766.142 531.871 739.917 529.092 709.285C528.637 704.265 526.203 692.737 530.539 689.354C533.918 691.044 535.08 715.876 535.92 721.378C539.373 744.242 545.753 766.568 554.901 787.805C557.05 792.806 559.841 799.231 562.828 803.682C566.596 809.295 572.729 814.373 576.874 819.673C591.237 815.602 603.122 812.171 617.142 806.781C686.095 780.267 738.673 736.22 774.682 671.658C816.28 598.303 826.7 511.322 803.606 430.216C786.535 370.957 751.823 318.301 704.089 279.255C694.899 271.649 679.901 260.295 669.496 254.627C668.687 254.18 667.861 253.764 667.02 253.378C667.406 263.874 673.963 270.524 678.798 279.64C684.986 291.305 690.237 303.391 694.105 316.038C699.668 334.213 701.964 353.735 698.613 372.557C697.329 381.497 690.316 392.989 692.49 401.973C695.549 414.609 704.868 426.937 712.626 437.142C721.817 449.229 730.368 460.238 711.272 468.425C704.752 471.22 696.096 473.071 696.29 481.869C696.298 488.15 700.037 493.057 702.146 498.695ZM615.405 207.897C629.251 300.081 542.442 364.576 466.516 393.618C442.799 402.69 417.603 409.598 393.201 416.545C391.765 416.417 392.321 416.356 390.947 417.001C366.205 424.219 335.963 431.935 314.745 446.722C309.009 450.719 304.019 456.321 299.533 461.653C329.812 438.086 349.478 441.834 384.792 439.372C403.201 437.966 421.599 436.42 439.985 434.736C484.966 430.68 523.042 426.812 563.468 405.13C608.617 380.913 642.852 339.319 657.861 290.289C662.678 274.553 667.067 251.223 658.699 235.941C657.955 235.288 657.482 234.782 656.803 234.058C653.05 223.668 626.161 211.57 615.405 207.897ZM398.918 726.408C413.362 749.954 433.435 770.853 461.771 776.061C479.498 779.32 494.47 776.009 511.53 771.568C496.782 763.95 470.475 754.207 454.638 747.963C446.65 745.036 435.468 741.284 427.923 737.85C459.972 743.178 487.991 755.519 517.875 768.073C491.496 740.817 471.985 715.647 429.109 719.779C418.763 721.003 408.774 722.897 398.918 726.408ZM273.434 703.807C286.775 681.106 295.853 666.775 318.027 650.913C319.966 649.62 320.994 648.931 323.091 647.945C303.982 668.36 294.122 676.545 280.911 702.709C305.211 690.333 324.955 681.188 333.888 652.747C336.235 645.274 338.57 633.802 338.509 625.966L337.909 625.454L337.289 625.514C298.317 637.215 274.127 661.914 273.434 703.807ZM230.954 488.346C231.724 496.405 232.329 504.141 235.294 512.157C241.821 529.804 259.899 545.526 279.154 546.388C280.115 546.431 279.953 546.417 280.466 545.802C278.332 542.408 268.036 531.341 264.803 527.902C257.888 520.545 249.084 509.039 241.875 502.454L241.109 501.645L241.454 501.194C248.964 503.841 275.357 534.416 282.689 541.968C281.069 536.97 280.063 530.302 278.299 525.806C269.884 504.357 252.126 494.285 230.954 488.346ZM694.212 497.002C686.705 499.123 675.08 505.796 666.579 508.989L671.127 510.453C675.678 511.287 677.713 511.535 682.342 511.677C685.452 509.522 694.212 501.457 695.662 498.168L695.427 497.441L694.212 497.002ZM513.518 468.228C507.435 467.698 503.313 467.618 498.28 471.811C497.923 472.11 497.571 472.414 497.224 472.724L497.25 473.04C503.551 470.131 506.821 468.563 514.001 470.946C526.03 474.938 529.954 489.201 525.654 500.207C519.272 516.54 501.235 523.674 484.689 522.267C448.671 519.203 436.571 481.498 449.249 451.337C451.04 447.176 453.226 443.197 455.779 439.454L455.792 438.7L455.039 438.745C451.322 439.048 446.712 439.551 443.051 439.632C433.757 458.592 428.767 474.219 435.586 496.135C447.573 534.665 508.503 541.595 527.589 505.759C530.922 499.502 531.877 489.255 529.282 482.331C527.125 476.517 522.671 471.846 516.966 469.414C515.839 468.94 514.688 468.577 513.518 468.228ZM464.096 437.656C452.839 453.017 447.826 465.8 450.635 485.065C453.358 503.747 465.611 514.01 483.473 517.4C489.196 517.905 491.234 517.69 496.913 517.438C490.594 515.387 485.615 513.756 479.985 510.03C463.963 499.427 461.249 480.311 466.682 462.968C470.392 451.122 476.28 445.148 483.757 435.712L483.443 435.298C478.167 435.932 468.943 437.424 464.096 437.656ZM408.278 263.935C421.967 253.971 436.329 244.526 450.248 234.858C463.427 225.662 476.457 216.253 489.332 206.635C491.947 204.703 505.604 195.163 506.772 193.855L506.287 193.438L505.353 193.553C496.349 196.058 486.899 198.887 478.362 202.72C451.914 214.595 422.538 238.925 407.254 263.718L407.221 264.471L408.278 263.935ZM592.767 199.987C590.068 241.944 559.037 280.759 528.603 307.432C482.29 348.023 428.231 372.45 372.921 397.967C334.125 415.866 302.526 434.321 286.663 476.762C289.477 473.212 292.205 467.434 294.38 463.251C298.394 456.716 302.698 450.114 308.856 445.261C332.643 426.519 365.031 419.215 393.619 411.143C412.964 405.681 431.621 400.899 450.602 394.363C515.189 372.123 589.52 328.003 608.481 257.506C613.314 239.537 612.616 223.664 611.303 205.491C605.291 203.899 598.655 202.018 592.767 199.987ZM325.592 304.034C318.723 311.923 315.211 319.738 316.182 330.397C316.531 334.22 319.765 352.152 324.055 352.454L325.576 350.571C329.609 344.533 333.825 338.273 335.747 331.184C338.343 321.611 334.153 309.381 325.592 304.034ZM380.789 280.998C386.747 271.26 390.058 259.9 387.398 248.506C386.16 243.203 382.911 236.713 378.13 233.83C364.765 246.346 363.57 267.12 376.148 280.596C376.899 281.396 377.669 282.181 378.454 282.948C378.344 271.7 377.812 260.029 378.077 248.877L378.689 247.401C379.645 248.656 380.871 277.418 380.789 280.998ZM683.603 367.127C669.913 358.501 654.916 354.45 638.705 355.769C635.487 355.984 632.315 355.939 629.091 355.935L624.686 361.536C642.721 358.959 655.467 359.002 672.171 366.738C675.529 368.595 678.375 370.21 681.598 372.28C682.345 370.53 683.064 368.963 683.603 367.127ZM296.617 405.337C304.385 387.135 313.04 374.556 321.342 357.875C307.579 337.519 305.69 314.443 325.887 297.649C336.025 305.325 340.913 313.303 340.494 326.323C352.895 310.436 363.283 302.309 376.805 288.65C357.929 270.212 356.328 244.104 378.365 227.434C397.293 240.369 395.838 261.694 386.726 280.266C402.851 268.265 400.048 264.177 410.931 250.266C433.977 220.805 464.752 200.795 500.413 190.345C498.552 190.418 495.006 190.448 493.297 190.701C421.461 196.69 357.191 217.691 309.435 274.358C263.349 329.045 253.006 400.28 271.455 468.124C273.203 474.555 274.958 481.587 277.245 487.81C278.106 463.726 286.294 426.997 296.617 405.337ZM388.249 333.712C384.995 334.267 349.173 340.062 348.788 340.325L350.531 340.813C365.508 343.488 376.358 341.865 389.159 333.766C388.39 333.639 388.69 333.588 388.249 333.712ZM338.309 339.597C334.725 346.007 331.301 352.762 327.254 358.875C303.79 394.331 291.511 429.059 283.605 470.727C291.489 452.267 304.131 433.873 320.51 421.931C347.525 402.234 380.867 389.319 410.926 374.831C477.552 342.719 552.526 300.469 582.016 228.481C585.407 219.992 587.854 208.342 589.282 199.239C582.364 197.589 575.629 196.555 568.947 195.026C563.249 206.417 556.503 215.776 548.874 225.678C511.313 274.428 457.131 306.916 401.099 330.368C399.001 331.247 395.116 334.903 393.27 336.484C389.013 340.111 384.081 342.861 378.758 344.576C368.295 348.045 352.624 348.09 342.761 342.974C341.611 342.367 340.479 341.726 339.365 341.054C340.347 337.955 341.836 336.315 343.821 333.851C354.418 323.882 373.087 314.425 388.076 317.386C393.248 318.408 398.1 320.857 401.036 325.35C468.135 297.238 527.186 257.571 564.74 193.947C548.19 191.892 535.663 190.404 519.091 190.462C501.826 203.387 484.364 216.355 466.836 228.888C428.22 256.5 368.002 293.728 341.922 333.587L338.309 339.597ZM397.353 326.809C393.098 323.69 387.266 320.278 381.781 321.208C369.485 322.49 355.513 329.25 346.803 337.836C352.107 336.506 355.675 336.028 361.112 335.402C372.859 333.437 386.486 331.6 397.353 326.809ZM405.363 452.061C407.35 449.752 411.879 445.059 413.173 442.876C412.265 442.172 412.474 442.53 410.667 442.709C408.154 442.976 405.469 443.21 402.98 443.549C403.226 446.447 403.337 449.785 404.175 452.515L404.784 452.843L405.363 452.061ZM652.255 220.913C661.844 230.995 663.249 233.067 666.942 246.322C672.454 250.38 678.457 253.899 684.168 257.715C692.443 263.32 700.457 269.302 708.185 275.641C767.622 324.232 806.659 393.36 817.573 469.352C830.17 552.522 809.339 637.297 759.631 705.157C710.991 771.639 637.918 816.057 556.507 828.629C476.351 840.109 394.926 819.156 330.266 770.412C192.974 668.5 158.548 477.822 259.138 337.259C263.843 330.684 269.459 324.717 273.997 318.021C277.884 312.198 281.668 304.806 285.362 298.693C295.934 281.198 306.185 266.749 321.377 252.897C312.995 258.09 301.483 268.046 293.985 274.661C231.006 329.76 192.318 411.487 186.747 494.769C180.266 582.118 209.572 668.349 267.936 733.66C293.049 762.268 323.052 786.239 356.048 805.238C477.088 874.928 622.156 855.651 726.473 763.641C791.462 705.858 830.799 624.599 835.811 537.781C841.948 450.375 812.71 364.169 754.667 298.531C730.05 270.683 702.125 248.58 669.959 230.092C665.957 227.792 656.267 221.687 652.255 220.913ZM375.844 507.391C381.31 511.047 384.919 513.686 389.491 518.461C390.624 519.644 393.186 522.712 394.1 523.565C392.078 517.148 382.487 508.236 375.844 507.391ZM396.76 444.79C390.479 445.444 378.759 446.405 372.728 445.418C378.074 448.404 382.621 451.031 387.498 454.862C391.542 458.306 395.98 461.956 399.916 465.471C399.833 462.055 399.221 446.908 397.2 444.695L396.76 444.79ZM315.415 471.884C325.449 472.118 337.708 479.495 346.053 484.942C338.226 482.914 328.579 477.959 320.665 475.268C318.91 474.67 316.487 473.191 315.482 472.863C315.496 476.804 315.588 478.811 317.941 482.266C322.567 489.057 332.164 492.75 340.18 491.159C344.003 490.4 347.858 488.518 351.802 489.278L352.22 490.204C342.407 505.232 288.505 491.651 320.739 453.576C305.323 461.848 294.119 467.794 288.036 485.192C273.167 527.718 304.648 576.776 344.584 591.117L352.775 586.686C342.071 581.284 334.652 577.024 330.783 564.509C324.16 543.089 342.057 518.775 365.05 532.22C373.333 537.799 382.194 552.737 375.893 562.242C373.513 565.833 364.076 569.887 360.261 567.152C359.786 564.028 371.727 562.527 372.927 558.291C375.677 548.591 366.126 537.207 357.863 534.418C353.518 532.904 348.735 533.297 344.696 535.501C333.932 541.424 332.245 559.406 338.507 569.03C343.376 576.511 352.059 581.03 360.469 583.029C373.68 586.104 385.986 585.48 397.554 578.217C422.1 562.803 426.601 531.841 416.967 506.247C414.184 498.853 411.394 493.89 407.084 487.214C393.747 488.899 385.856 492.285 376.5 502.416C381.499 504.479 384.911 505.917 389.116 509.439C396.586 515.725 401.185 524.773 401.862 534.512C403.984 561.335 376.605 595.811 349.637 574.075C335.591 562.755 346.519 532.626 359.766 547.219C360.01 549.123 360.25 548.343 359.443 549.729C356.97 550.28 355.832 547.908 352.67 548.748C346.598 550.362 347.128 557.459 348.633 562.313C349.964 566.606 353.287 571.127 357.503 573.156C363.145 575.87 369.328 576.241 375.175 573.827C390.976 567.42 399.196 548.111 392.921 532.274C388.08 520.056 376.35 513.588 364.992 508.572C377.991 490.964 383.735 486.93 404.897 482.435C395.821 468.815 384.057 458.099 369.887 450.122C354.013 441.187 326.613 447.704 318.608 464.847C317.507 467.205 316.678 469.663 315.415 471.884ZM225.306 480.954C247.443 486.974 261.77 492.059 275.935 510.761C274.946 493.547 270.201 484.906 265.645 468.389C256.729 437.038 254.632 404.141 259.496 371.912C260.775 363.536 262.397 356.096 264.656 347.956C265.294 345.659 268.564 334.419 268.388 332.904C257.374 350.285 250.48 358.631 240.672 377.801C208.327 441.347 198.831 514.086 213.777 583.806C221.826 619.848 239.436 661.361 261.724 691.015C268.372 663.994 278.725 639.651 299.342 620.08C313.297 607.316 320.411 602.137 337.667 593.556C315.573 585.875 299.62 568.533 288.38 548.55C284.888 551.449 282.142 552.651 277.485 551.991C238.88 546.515 225.621 515.707 225.306 480.954Z"/><path fill="#FF8B28" transform="scale(0.898438 0.898438)" d="M613.631 617.09C650.332 613.249 657.778 672.215 621.074 681.48C589.722 684.954 580.968 651.696 594.467 629.141C598.52 622.369 606.077 618.625 613.631 617.09ZM620.413 677.467C638.844 671.14 639.234 650.894 634.215 634.922C631.249 625.48 622.522 620.591 612.75 621.596C584.814 631.135 596.091 682.937 620.413 677.467Z"/><path fill="#FF8B28" transform="scale(0.898438 0.898438)" d="M365.181 700.007C366.641 699.994 367.27 701.16 367.65 702.441C376.123 731.036 362.128 751.442 335.14 761.112C329.144 751.222 328.551 731.368 334.334 721.092C340.999 709.249 352.721 703.7 365.181 700.007ZM336.2 747.664C342.273 734.329 344.723 729.468 354.621 718.621C353.539 720.858 352.95 722.28 351.444 724.289C345.609 732.875 341.938 743.249 339.516 753.282C358.088 743.373 368.301 730.894 362.939 707.98C362.791 707.347 362.208 707.071 361.662 706.94C340.383 715.456 334.514 724.581 336.2 747.664Z"/><path fill="#FF8B28" transform="scale(0.898438 0.898438)" d="M560.527 616.694C567.034 617.052 571.228 618.239 577.498 619.915C576.601 624.085 575.932 629.324 576.441 633.543C571.688 624.93 566.064 619.804 555.538 621.573C521.907 627.27 530.543 682.166 564.212 678.358C572.505 677.42 569.022 659.871 568.769 654.315C568.715 653.128 566.191 652.618 565.133 652.293C563.98 651.976 564.184 652.048 563.144 651.549L563.641 650.934C567.115 650.264 578.004 650.21 582.823 649.767L577.605 653.253C576.654 662.605 577.152 668.747 577.675 678.107C572.792 680.067 567.665 681.352 562.435 681.927C541.842 684.003 526.326 670.507 526.394 649.653C526.464 628.095 540.843 618.259 560.527 616.694Z"/><path fill="#FF8B28" transform="scale(0.898438 0.898438)" d="M396.809 616.66C401.841 616.123 406.871 617.412 411.66 618.797C411.569 623.179 411.655 627.564 411.916 631.939C410.051 628.886 408.646 626.443 406.354 623.684C397.042 619.605 387.48 619.313 384.383 630.779C388.047 644.477 399.947 644.618 409.019 653.479C420.115 664.317 412.95 679.175 398.808 681.691C394.661 682.429 392.097 682.341 387.873 682.018C384.173 681.529 380.202 680.494 376.538 679.629C376.084 673.574 375.924 670.538 376.082 664.359C383.731 671.6 381.022 680.388 396.478 677.795C401.775 676.906 409.652 671.287 407.545 665.492C402.612 651.925 380.122 651.611 377.644 635.652C375.615 622.602 385.915 618.117 396.809 616.66Z"/><path fill="#FF8B28" transform="scale(0.898438 0.898438)" d="M511.14 618.044C517.022 617.65 523.015 617.385 528.918 617.03C516.763 624.312 512.868 635.654 506.64 648.335L506.28 649.094C502.811 656.463 501.539 668.161 503.496 676.343C504.052 678.668 509.058 680.128 511.417 681.009L489.066 681.078C490.711 680.111 494.165 678.306 494.788 676.703C498.684 666.677 493.828 652.822 489.458 644.187C484.7 634.784 480.697 624.471 473.015 617.979C478.643 617.864 484.267 617.618 489.883 617.241L490.055 617.314L490.192 617.848L486.539 620.673C489.195 629.037 496.081 643.438 500.539 651.203C504.679 642.425 510.144 632.33 513.062 623.193C513.737 621.08 512.41 619.963 511.14 618.044Z"/><path fill="#FF8B28" transform="scale(0.898438 0.898438)" d="M421.619 617.249C435.271 618.56 456.696 617.982 470.411 617.423C471.156 622.448 471.084 625.395 471.015 630.486C463.476 620.752 461.19 622.515 449.433 622.593C449.646 634.009 449.678 645.428 449.529 656.845C449.5 662.223 449.212 671.462 449.829 676.492C452.27 679.927 454.999 679.985 459.111 680.901C450.457 681.239 441.794 681.258 433.139 680.959C436.534 679.832 438.068 679.248 441.264 677.669C442.908 670.55 442.48 658.451 442.388 650.943C442.251 641.475 442.168 632.007 442.14 622.538C430.258 621.65 427.142 621.002 419.781 630.906C420.254 626.336 420.867 621.781 421.619 617.249Z"/><path fill="#FF8B28" transform="scale(0.898438 0.898438)" d="M658.838 411.492C658.883 408.794 658.658 400.268 660.168 398.634L661.102 398.581C662.734 401.527 660.827 409.565 660.96 413.499C660.626 414.733 660.773 414.36 660.141 415.445C655.58 414.829 634.571 402.042 628.674 399.085C639.039 398.873 645.628 398.289 656.509 398.522C656.659 403.263 656.218 407.58 658.838 411.492Z"/><path fill="#FF8B28" transform="scale(0.898438 0.898438)" d="M660.164 391.168C663.103 390.795 666.577 392.086 669.509 392.29C671.633 392.438 673.997 391.324 675.877 392.794L675.605 393.572C670.39 396.863 659.273 396.046 652.973 396.037C647.176 396.883 641.042 397.113 635.192 397.035C639.958 395.014 654.794 391.91 660.164 391.168Z"/><path fill="#FF8B28" transform="scale(0.898438 0.898438)" d="M327.922 462.513C328.949 462.454 329.978 462.427 331.006 462.433C342.126 462.567 351.616 472.065 358.291 480.028C360.299 482.425 365.918 488.143 365.848 491.151L365.14 491.666L363.725 491.278L362.94 490.639C353.061 482.683 345.963 471.382 333.547 467.279C331.348 466.552 326.494 466.489 325.021 465.308C325.499 463.93 326.666 463.39 327.922 462.513Z"/><path fill="#F71411" transform="scale(0.898438 0.898438)" d="M329.647 315.384L330.232 316.06C331.599 323.043 328.361 334.201 326.67 341.188L326.164 341.011C325.919 336.994 329.071 320.514 329.647 315.384Z"/><path fill="#F40012" fill-opacity="0.98431373" transform="scale(0.898438 0.898438)" d="M656.803 234.058C657.482 234.782 657.955 235.288 658.699 235.941C656.801 241.047 655.922 247.902 654.551 253.284C652.892 259.798 650.997 265.939 648.242 272.108C626.391 322.846 578.504 360.863 530.137 384.914C494.788 402.492 453.827 413.142 414.687 416.908C408.025 417.55 397.083 419.148 390.947 417.001C392.321 416.356 391.765 416.417 393.201 416.545C398.521 417.942 419.011 415.148 425.368 414.304C479.268 407.146 532.044 387.376 576.036 355.19C608.559 331.396 636.991 300.807 650.437 262.167C653.422 253.619 655.386 243.036 656.803 234.058Z"/><path fill="#FF8B28" transform="scale(0.898438 0.898438)" d="M315.482 472.863L315.415 471.884C325.449 472.118 337.708 479.495 346.053 484.942C338.226 482.914 328.579 477.959 320.665 475.268C318.91 474.67 316.487 473.191 315.482 472.863Z"/><path fill="#FF8000" fill-opacity="0.054901961" transform="scale(0.898438 0.898438)" d="M375.844 507.391C382.487 508.236 392.078 517.148 394.1 523.565C393.186 522.712 390.624 519.644 389.491 518.461C384.919 513.686 381.31 511.047 375.844 507.391Z"/><path fill="#FF8000" fill-opacity="0.043137256" transform="scale(0.898438 0.898438)" d="M341.922 333.587L343.821 333.851C341.836 336.315 340.347 337.955 339.365 341.054L338.309 339.597L341.922 333.587Z"/><path fill="#F71411" transform="scale(0.898438 0.898438)" d="M327.504 247.28L328.078 247.47C327.557 249.043 324.184 251.423 322.754 252.556L322.067 252.262C323.091 250.546 325.84 248.612 327.504 247.28Z"/></svg>