<?xml version="1.0" encoding="utf-8" ?><svg xmlns="http://www.w3.org/2000/svg" xmlns:xlink="http://www.w3.org/1999/xlink" width="920" height="920" viewBox="0 0 920 920"><path fill="#226551" transform="scale(0.898438 0.898438)" d="M0 0L1024 0L1024 1024L0 1024L0 0Z"/><path fill="#FBD398" transform="scale(0.898438 0.898438)" d="M162.011 222.644C205.695 179.615 255.672 164.495 316.25 164.935C400.133 165.544 480.779 203.611 539.167 262.897C570.63 294.868 593.761 334.076 606.529 377.077C609.795 388.192 612.123 399.688 614.297 411.059L607.262 411.129C604.88 398.149 602.18 385.685 598.144 373.102C595.369 364.452 591.517 355.863 588.751 347.402C591.276 366.604 591.427 392.185 587.746 411.076L580.596 411.081C585.107 390.852 584.092 370.244 582.708 349.737C582.479 346.345 582.097 336.472 581.067 334.025C573.703 316.537 558.085 294.258 545.488 280.589C556.857 329.692 562.583 360.966 548.704 411.289L541.272 411.043C553.458 366.754 552.425 338.323 541.336 293.572C540.337 289.541 536.278 271.029 534.733 269.062C525.606 257.446 501.899 238.322 490.052 230.354C495.922 241.662 503.115 255.771 507.597 267.819C522.136 306.907 532.067 355.426 519.232 396.08C517.584 401.258 515.568 406.311 513.198 411.201L505.513 411.137C510.217 400.366 513.753 391.49 516.006 379.592C522.843 343.483 512.862 302.245 500.25 268.322C496.868 259.225 482.806 229.737 477.535 222.544C473.665 217.262 438.357 200.233 430.646 196.759C416.166 190.238 396.778 184.742 381.332 180.288C397.488 192.487 412.814 203.322 427.753 217.495C464.969 252.801 498.137 301.874 506.059 353.487C509.527 376.083 506.033 391.846 495.447 411.408L487.18 411.001C489.512 407.254 492.424 402.722 494.291 398.805C502.575 381.166 501.248 359.663 496.635 341.177C486.001 298.556 459.905 259.735 429.257 228.808C410.828 210.21 388.877 194.69 367.806 179.235C364.854 177.07 361.46 176.69 357.951 176.089C371.593 185.285 382.352 196.203 393.495 208.206C434.741 252.637 466.852 309.483 478.501 369.306C481.316 383.07 482.658 397.094 482.504 411.142L475.647 411.069C476.8 339.03 432.677 258.613 383.753 207.986C376.731 200.767 369.37 193.885 361.694 187.364C357.737 184.063 349.51 177.91 346.374 174.636C323.572 171.449 293.903 171.297 271.354 175.609C277.654 180.054 284.791 184.05 290.782 188.357C300.697 195.487 312.071 204.119 321.294 211.981C379.444 261.546 433.98 336.39 453.042 411.039L445.975 411.074C421.425 321.433 344.823 225.814 264.428 179.984L260.395 177.697C249.692 179.836 239.19 182.878 229.001 186.791C231.694 188.115 234.44 189.428 237.109 190.796C315.705 231.069 377.171 311.826 405.138 394.214C407.038 399.767 408.782 405.372 410.366 411.024L402.9 411.059C379.714 327.92 319.35 245.504 243.833 202.15C237.255 198.373 227.384 193.398 220.378 190.66C199.664 200.376 185.749 209.031 169.62 225.641C235.102 261.182 292.436 324.917 324.261 391.964C331.914 408.086 339.618 429.041 344.673 446.11C350.92 467.519 355.702 489.329 358.985 511.388C361.445 527.625 363.148 545.097 366.197 561.097C372.252 592.874 386.167 621.937 409.406 644.758C413.267 641.5 417.232 638.055 421.167 634.912C413.257 630.416 396.727 618.173 393.316 609.871C390.147 602.159 383.702 587.76 381.402 579.983L389.337 580.032C392.859 588.739 395.949 596.396 400.378 604.686C442.411 616.08 477.88 605.521 511.619 579.954C514.964 579.786 517.904 579.612 521.256 579.737C518.524 583.537 513.109 587.874 509.344 590.663C492.361 603.337 472.582 611.746 451.671 615.182C437.211 617.55 420.241 617.527 406.046 613.647C443.324 650.525 486.882 643.438 521.898 607.679C530.533 598.861 537.3 589.961 544.579 580.002L552.731 580.084C537.408 606.18 508.06 635.605 478.461 643.125C460.955 647.573 444.858 645.557 428.305 638.644C422.704 643.621 415.365 650.125 409.226 654.33C405.423 651.121 401.646 647.736 398.323 644.021C389.57 652.655 386.555 654.148 376.203 660.064C381.128 669.903 391.957 681.092 399.618 689.417C406.717 687.482 413.833 688.061 420.436 691.734C436.909 700.896 439.227 721.127 444.176 737.477C444.488 738.51 444.735 739.618 444.952 740.666C461.644 744.049 473.292 752.852 477.814 769.788C542.442 804.2 586.282 879.738 621.104 941.945C629.348 956.673 643.282 982.354 649.584 997.509L641.707 997.565C634.31 980.176 619.187 952.302 609.586 935.586C576.321 877.671 533.323 805.664 471.963 774.839C462.391 775.394 450.689 778.646 441.354 781.559C399.45 794.639 352.383 819.782 322.59 852.325C285.962 892.332 286.245 947.851 286.525 998.724L279.523 998.923C278.274 943.594 279.146 885.941 320.614 843.74C357.556 806.144 417.968 775.413 469.816 767.357C465.023 758.471 458.612 751.552 448.508 749.026C421.888 742.373 384.734 755.694 361.624 768.579C336.279 782.71 315.091 800.222 298.062 823.567C287.242 838.4 278.923 857.712 271.323 874.471C257.547 904.565 245.185 935.286 234.277 966.534C231.107 975.669 226.933 987.239 224.348 996.399C224.103 997.275 223.871 998.155 223.651 999.038L216.011 998.995C225.585 965.582 239.351 930.374 252.761 898.322C258.475 884.663 265.985 866.467 272.84 853.52C266.361 858.993 262.356 863.681 256.639 869.227C229.31 895.739 216.31 928.409 208.851 964.969C207 974.044 204.404 987.087 203.575 996.546C203.515 997.236 203.465 997.928 203.426 998.62L195.606 998.483C202.71 939.18 218.16 890.155 264.567 851.202C268.273 848.091 274.726 842.947 277.812 838.892C294.397 797.153 320.012 759.337 349.989 725.993C357.244 717.923 370.635 706.342 380.052 700.113C370.916 703.68 361.602 707.304 352.971 712.116C299.215 742.083 258.853 789.724 234.252 845.816C223.247 870.908 216.691 892.82 208.058 918.202L179.705 999.422L171.729 999.348C176.428 984.774 181.642 971.2 186.711 956.844C191.261 943.671 195.745 930.475 200.162 917.256C208.207 893.876 216.055 869.117 225.619 846.394C253.022 781.282 318.272 704.391 391.132 690.897C380.108 679.842 371.331 670.485 367.154 655.257C378.144 651.918 385.127 646.71 393.259 638.503C389.852 634.304 386.244 629.999 383.064 625.645C378.934 625.562 369.114 623.906 367.148 624.052C370.387 634.538 363.409 642.667 352.966 643.596C330.802 645.568 339.847 613.985 326.615 604.68C323.395 602.416 316.134 601.179 312.223 601.786C315.479 602.727 320.266 603.186 323.75 603.629C316.918 604.385 306.355 602.906 300.135 599.846C293.814 596.736 291.826 593.611 289.665 587.52C300.234 603.173 305.644 599.4 321.65 601.079C340.972 603.107 331.32 639.455 349.497 642.051C355.428 642.899 367.177 637.694 366.961 630.04C365.003 612.092 344.39 604.842 333.925 593.197C313.992 596.355 295.689 594.029 296.68 568.575C296.498 568.617 296.317 568.659 296.135 568.701C289.971 572.616 285.328 576.65 278.551 579.93C271.318 583.432 265.544 584.47 258.118 586.827C253.987 588.809 251.231 593.145 246.066 591.102C243.998 590.285 242.371 588.045 241.568 585.931C238.72 578.434 250.598 579.211 253.289 577.244C254.045 569.805 238.922 572.373 248.175 563.666C252.807 559.306 258.133 560.133 264.054 559.921C278.204 560.493 291.459 554.69 292.559 538.739C293.666 522.701 282.396 520.302 269.727 526.288C275.197 526.399 281.351 525.516 285.407 529.902C291.018 535.968 286.888 545.901 281.259 550.434C277.042 553.829 272.94 554.528 267.815 555.286C279.61 536.962 260.298 533.648 268.908 519.358C276.186 507.279 299.998 491.408 303.477 516.798C306.834 541.508 299.274 555.92 278.397 568.844C302.282 561.253 311.82 542.271 308.699 517.989C307.767 510.74 305.1 502.805 298.223 499.146C294.75 497.3 290.66 497.002 286.956 498.325C279.231 501.007 266.232 511.349 263.23 519.495C261.366 524.552 261.237 525.175 261.218 530.523C263.803 534.624 268.178 542.538 266.32 547.003C260.794 560.284 239.85 549.741 243.908 571.734C218.245 579.594 206.771 613.323 211.208 637.541C174.557 655.915 138.087 670.411 97.4462 677.401C80.4385 680.327 53.8082 687.202 44.0579 667.695C34.0802 647.733 59.077 628.175 37.6423 612.276C51.839 610.112 56.8364 604.124 66.3884 594.56C68.1628 592.784 71.9478 591.923 74.2344 589.466L74.4038 588.46C72.9309 586.419 67.5722 584.422 65.0216 583.388C47.8454 576.424 45.1492 558.451 26.8567 553.335C35.5959 548.267 37.9168 545.767 38.5375 535.494L38.114 534.951C30.3515 525.098 9.00268 508.396 26.7622 495.39C41.5177 484.584 65.4476 472.398 69.7028 452.731C70.7949 445.826 68.4475 429.664 68.3698 421.501C68.1472 398.134 83.9925 363.856 97.8804 344.831C93.7897 336.765 89.0955 327.979 87.4541 318.929C82.0016 288.866 105.563 256.694 125.995 237.197C136.815 226.872 146.654 219.978 162.011 222.644Z"/><path fill="#226551" transform="scale(0.898438 0.898438)" d="M313.478 505.914C319.815 508.828 349.338 517.691 351.947 520.001L351.778 521.047L353.346 522.224C346.566 533.859 338.963 550.054 342.311 563.831L341.506 565.967C333.473 570.042 330.054 582.502 334.203 590.353C338.724 598.908 350.599 602.719 357.082 609.713C361.201 613.826 364.433 619.958 367.248 622.831L367.148 624.052C370.387 634.538 363.409 642.667 352.966 643.596C330.802 645.568 339.847 613.985 326.615 604.68C323.395 602.416 316.134 601.179 312.223 601.786C315.479 602.727 320.266 603.186 323.75 603.629C316.918 604.385 306.355 602.906 300.135 599.846C293.814 596.736 291.826 593.611 289.665 587.52C300.234 603.173 305.644 599.4 321.65 601.079C340.972 603.107 331.32 639.455 349.497 642.051C355.428 642.899 367.177 637.694 366.961 630.04C365.003 612.092 344.39 604.842 333.925 593.197C313.992 596.355 295.689 594.029 296.68 568.575C296.914 568.416 297.534 567.747 297.761 567.515C316.825 554.377 319.609 526.489 313.478 505.914Z"/><path fill="#FBD398" transform="scale(0.898438 0.898438)" d="M351.778 521.047L353.346 522.224C346.566 533.859 338.963 550.054 342.311 563.831L341.506 565.967C333.473 570.042 330.054 582.502 334.203 590.353C338.724 598.908 350.599 602.719 357.082 609.713C361.201 613.826 364.433 619.958 367.248 622.831L367.148 624.052C370.387 634.538 363.409 642.667 352.966 643.596C330.802 645.568 339.847 613.985 326.615 604.68C323.395 602.416 316.134 601.179 312.223 601.786C315.479 602.727 320.266 603.186 323.75 603.629C316.918 604.385 306.355 602.906 300.135 599.846C293.814 596.736 291.826 593.611 289.665 587.52C300.234 603.173 305.644 599.4 321.65 601.079C340.972 603.107 331.32 639.455 349.497 642.051C355.428 642.899 367.177 637.694 366.961 630.04C365.003 612.092 344.39 604.842 333.925 593.197C313.992 596.355 295.689 594.029 296.68 568.575C296.914 568.416 297.534 567.747 297.761 567.515C297.904 568.298 298.059 569.447 298.102 570.248C299.341 593.287 313.898 594.551 332.962 591.688C332.529 590.552 332.123 589.405 331.744 588.25C329.416 580.981 331.9 575.155 335.106 568.871C327.714 568.899 314.784 564.654 314.176 556.06C317.173 555.746 322.336 573.683 341.136 564.588C337.425 551.311 344.09 531.853 351.778 521.047Z"/><path fill="#226551" transform="scale(0.898438 0.898438)" d="M341.506 565.967C346.578 574.097 351.068 577.315 360.622 579.562C361.595 579.789 362.571 580.004 363.55 580.206C368.614 596.439 373.416 608.833 381.886 623.569C378.635 623.259 369.988 622.178 367.248 622.831C364.433 619.958 361.201 613.826 357.082 609.713C350.599 602.719 338.724 598.908 334.203 590.353C330.054 582.502 333.473 570.042 341.506 565.967Z"/><path fill="#226551" transform="scale(0.898438 0.898438)" d="M353.346 522.224C355.291 539.918 358.17 561.074 362.924 578.221C353.914 576.177 348.226 574.069 343.325 565.58L342.311 563.831C338.963 550.054 346.566 533.859 353.346 522.224Z"/><path fill="#226551" transform="scale(0.898438 0.898438)" d="M116.761 257.215C123.628 258.77 143.762 271.281 150.164 275.732C222.723 326.176 280.679 396.454 328.754 469.93C335.255 479.865 343.196 489.881 349.269 499.771C344.96 497.722 340.014 494.892 335.759 492.598C267.251 455.284 204.561 408.162 149.676 352.725C139.542 342.46 129.786 331.828 120.429 320.85C114.586 314.052 103.324 300.6 96.9096 294.9L96.4011 294.454C100.295 282.969 109.894 267.07 116.761 257.215Z"/><path fill="#226551" transform="scale(0.898438 0.898438)" d="M151.495 229.596C162.171 228.947 169.808 233.712 178.809 239.149C225.088 267.103 268.816 312.027 297.412 357.73C309.852 377.645 320.308 398.733 328.628 420.691C337.122 442.8 341.36 461.548 347.138 484.189C343.327 479.564 338.546 472.024 335.077 466.85C295.08 405.322 249.787 348.69 194.078 300.645C172.986 282.455 147.894 263.39 122.812 251.093C130.375 242.377 140.077 232.404 151.495 229.596Z"/><path fill="#226551" transform="scale(0.898438 0.898438)" d="M94.179 303.216C95.8145 304.572 97.6719 306.598 99.1802 308.174C112.044 321.619 123.803 336.057 136.632 349.544C162.417 376.378 190.049 401.373 219.327 424.345C243.055 443.127 274.461 465.355 300.495 481.06C311.419 487.66 322.44 494.099 333.554 500.374C336.461 502.008 349.041 508.615 350.601 509.969C346.145 509.87 342.122 508.107 337.957 506.682C271.534 483.954 214.329 442.527 160.877 398.001C140.427 380.966 120.27 362.051 104.669 340.379C96.3303 328.77 93.6385 317.348 94.179 303.216Z"/><path fill="#226551" transform="scale(0.898438 0.898438)" d="M402.839 695.547C429.827 693.863 430.407 721.667 438.039 740.001C394.42 739.79 349.277 761.279 317.902 790.828C310.854 797.487 305.455 803.274 298.928 810.458C299.253 809.748 299.592 809.045 299.947 808.349C301.688 804.889 303.733 801.435 305.764 798.123C326.509 764.29 350.887 730.678 383.113 706.878C389.319 702.294 395.45 698.008 402.839 695.547Z"/><path fill="#226551" transform="scale(0.898438 0.898438)" d="M175.979 420.52C185.591 426.993 195.662 435.362 205.216 442.174C227.355 457.961 258.196 479.943 282.943 490.952C270.638 498.021 263.881 502.614 256.353 514.749C252.814 521.925 249.003 534.897 237.648 531.391C229.642 528.406 232.826 517.425 229.295 511.507C223.284 501.436 210.938 512.397 205.378 499.484C202.516 492.836 202.158 489.779 203.766 482.369C205.326 475.184 209.564 467.01 205.484 460.055C200.868 452.892 191.158 456.851 184.346 454.696C168.606 449.717 172.385 432.513 175.979 420.52Z"/><path fill="#FBD398" transform="scale(0.898438 0.898438)" d="M217.25 453.824C217.917 455.446 215.112 464.493 215.656 468.343C217.642 489.268 237.637 482.906 249.391 490.855C257.385 496.261 245.24 518.692 239.998 523.541L239.827 523.066C240.342 521.895 240.004 522.505 240.653 521.573C244.076 516.728 246.941 511.266 249.081 505.741C256.566 486.419 239.024 490.533 227.424 486.059C212.801 480.419 212.261 466.432 217.25 453.824Z"/><path fill="#226551" transform="scale(0.898438 0.898438)" d="M98.0263 436.071C107.075 435.952 111.407 441.674 116.259 448.387C114.717 447.303 113.161 446.239 111.593 445.193C105.561 441.192 93.6803 436.404 89.1557 444.907C89.2164 445.883 89.2924 446.612 90.355 447.048C98.7615 450.493 104.226 456.656 111.099 462.371C116.026 466.468 121.809 469.404 125.952 474.517C120.381 475.29 114.799 475.82 109.113 476.635C95.9289 478.753 85.2128 484.505 72.1659 485.13C76.419 482.472 82.1461 480.125 86.8167 478.071C84.4356 467.556 83.6863 462.675 85.9227 452.229C78.6166 448.593 77.4328 447.279 73.8462 440.244C78.7839 444.023 79.3459 445.663 85.5097 446.981C88.5071 440.214 90.5951 437.54 98.0263 436.071Z"/><path fill="#FBD398" transform="scale(0.898438 0.898438)" d="M102.113 459.828C107.23 464.162 111.285 467.92 116.899 471.669C114.714 472.116 112.362 472.464 110.151 472.832L98.6989 474.886C101.295 468.321 101.401 466.978 102.113 459.828Z"/><path fill="#FBD398" transform="scale(0.898438 0.898438)" d="M89.8147 452.749C92.0057 454.048 90.9303 453.927 90.7106 456.256C90.2191 458.471 89.9882 460.704 89.6397 462.924C89.19 465.789 91.4208 473.463 91.0455 475.53L90.3762 475.317C88.2461 470.362 87.0615 457.457 89.8147 452.749Z"/><path fill="#226551" transform="scale(0.898438 0.898438)" d="M92.0407 402.149C97.5707 401.642 100.765 401.87 106.086 403.523C119.605 407.723 134.343 425.356 140.465 437.583C134.825 432.425 131.174 429.409 124.993 425.106C93.9384 404.746 81.2457 425.959 72.8078 423.802C71.9382 423.579 71.9476 423.177 71.5231 422.462C71.1847 418.543 72.8663 413.414 75.0498 410.209C78.8849 404.58 85.8084 403.28 92.0407 402.149Z"/><path fill="#226551" transform="scale(0.898438 0.898438)" d="M62.864 509.435C76.3014 518.365 68.763 540.222 53.1241 539.693C50.2114 539.594 44.3581 537.109 42.3971 534.81C43.6842 534.095 44.0215 534.032 44.9683 532.892C44.0483 529.385 40.7535 529.406 38.097 528.926C37.4254 528.805 35.6523 526.802 35.0726 526.17C32.014 522.253 31.2598 520.07 29.6995 515.532C34.8071 517.38 37.6476 518.689 41.9192 522.497C45.9035 525.941 48.8094 532.768 53.6309 535.039C57.459 536.841 63.741 530.656 64.8296 527.396C66.911 521.163 65.5794 515.124 62.864 509.435Z"/><path fill="#FBD398" transform="scale(0.898438 0.898438)" d="M808.151 15.2101C809.272 15.1111 810.395 15.0507 811.519 15.029C860.332 14.0459 910.996 34.3372 946.28 67.9853C984.558 104.898 1006.56 155.531 1007.44 208.701C1008.58 260.855 988.881 311.312 952.712 348.905C916.578 386.566 871.32 405.461 819.427 406.527C837.001 419.449 856.645 428.372 878.102 432.704C891.252 435.358 907.176 434.552 920.781 434.519L969.488 434.632C974.286 434.65 987.774 433.357 991.014 435.984C991.563 437.805 991.533 436.899 991.013 438.801C988.709 440.263 970.661 439.55 966.75 439.523L916.824 439.482C907.11 439.527 892.345 440.053 883.35 438.878C857.173 435.232 832.528 424.365 812.181 407.497C805.37 412.387 796.929 418.997 790.499 424.264C792.171 417.744 792.61 418.472 791.231 411.613C794.975 410.159 798.122 408.881 801.758 407.192C760.061 404.427 720.383 388.226 688.667 361.016C649.549 327.17 625.495 279.157 621.807 227.561C616.658 154.57 650.073 85.9193 711.324 45.8472C742.04 25.7525 771.939 17.7145 808.151 15.2101Z"/><path fill="#226551" transform="scale(0.898438 0.898438)" d="M816.657 20.3498C859.595 19.4987 909.244 39.9046 940.328 69.1718C981.496 107.934 1000.31 153.485 1002.38 209.315C1000.82 208.669 990.38 199.124 987.751 197.217C962.636 178.999 943.231 171.909 912.654 169.182C912.041 167.008 911.35 164.857 910.581 162.732C901.643 137.753 880.084 119.144 856.628 107.985C856.567 102.347 855.175 94.0553 853.906 88.553C847.455 60.565 835.765 41.0367 816.657 20.3498Z"/><path fill="#226551" transform="scale(0.898438 0.898438)" d="M1001.85 215.875C1003.77 217.735 1001.67 234.002 1001.22 237.71C996.08 277.635 978.42 314.904 950.776 344.165C916.603 380.81 871.128 400.658 821.222 402.449L820.927 402.277C821.23 401.203 829.532 391.265 831.149 388.919C845.434 367.771 854.086 343.328 856.288 317.903C860.874 316.265 865.301 314.214 869.517 311.777C890.275 299.709 906.37 278.938 912.414 255.665C940.338 254.86 970.071 243.042 991.106 224.905C994.691 221.814 998.04 218.712 1001.85 215.875Z"/><path fill="#226551" transform="scale(0.898438 0.898438)" d="M805.918 20.2139L807.196 20.3499C807.329 21.886 804.488 24.3963 803.184 25.8693C796.734 33.2696 791.009 41.272 786.088 49.7665C774.608 69.5359 770.335 86.1397 767.875 108.449C761.987 110.502 756.335 113.177 751.014 116.427C732.062 128.031 718.588 146.787 713.643 168.452C677.944 171.791 654.204 184.65 627.851 207.618L627.006 207.959C625.592 205.333 627.328 191.01 627.789 187.179C632.481 149.339 648.372 113.763 673.422 85.0148C708 45.483 753.695 23.6453 805.918 20.2139Z"/><path fill="#226551" transform="scale(0.898438 0.898438)" d="M625.967 217.24C628.637 218.854 636.026 225.975 639.911 228.729C660.304 243.187 689.45 255.542 714.679 255.549C715.727 261.231 717.366 266.788 719.569 272.13C728.809 294.643 746.645 309.435 768.757 318.57C772.788 351.224 782.471 377.651 804.303 402.794C755.113 398.329 717.691 382.804 681.46 347.775C648.923 316.316 625.666 262.877 625.967 217.24Z"/><path fill="#226551" transform="scale(0.898438 0.898438)" d="M812.188 25.8332C814.818 27.3532 821.403 35.7507 823.409 38.4369C839.203 59.2473 848.601 84.2032 850.458 110.262C852.386 141.352 844.148 170.245 825.401 195.129C821.723 200.011 817.26 204.9 813.204 209.51C760.244 155.518 761.874 80.7892 812.188 25.8332Z"/><path fill="#226551" transform="scale(0.898438 0.898438)" d="M812.611 217.839C815.646 219.579 821.741 226.803 824.051 229.68C838.389 247.3 847.207 268.759 849.402 291.369C852.823 323.739 844.827 356.287 826.798 383.389C822.402 390.06 817.818 395.518 812.755 401.673C790.581 379.547 777.185 346.426 775.387 315.247C773.144 276.363 787.135 246.205 812.611 217.839Z"/><path fill="#226551" transform="scale(0.898438 0.898438)" d="M898.87 175.715C901.172 175.388 905.264 175.39 907.641 175.443C933.263 176.016 958.489 184.19 979.219 199.334C984.766 203.386 989.96 207.534 995.264 211.731C971.997 234.686 947.177 245.822 914.624 248.932L910.683 249.116C874.782 250.713 843.129 237.75 816.861 213.737C822.177 209.613 826.728 204.831 832.738 200.289C851.856 185.718 874.876 177.164 898.87 175.715Z"/><path fill="#226551" transform="scale(0.898438 0.898438)" d="M715.302 175.219C751.366 172.407 784.057 189.958 809.169 214.322C803.452 218.055 796.63 224.055 790.782 228.186C771.335 241.926 750.487 248.299 726.849 249.604C692.194 251.576 657.641 235.812 632.049 213.189C656.319 191.788 681.931 176.91 715.302 175.219Z"/><path fill="#226551" transform="scale(0.898438 0.898438)" d="M788.519 237.59C789.011 238.108 788.457 238.852 788.094 239.416C773.535 262.043 768.436 285.292 768.084 312.162C756.515 306.231 749.895 302.091 740.54 293.266C730.359 283.137 723.534 270.125 720.991 255.99C747.392 256.297 765.925 250.811 788.519 237.59Z"/><path fill="#226551" transform="scale(0.898438 0.898438)" d="M835.696 236.309C839.786 238.098 845.513 241.841 850.514 244.037C869.9 252.545 885.497 255.796 906.281 255.685C901.795 270.515 896.627 279.764 885.903 290.928C877.661 299.591 867.795 306.548 856.868 311.403C857.306 283.952 852.404 258.784 835.696 236.309Z"/><path fill="#226551" transform="scale(0.898438 0.898438)" d="M767.004 114.958C767.222 115.294 767.439 115.63 767.657 115.966C767.926 126.229 768.344 135.514 770.347 145.633C773.765 162.891 780.177 175.544 789.429 190.173C779.365 182.955 769.584 178.508 758.064 174.344C744.007 170.431 734.29 168.412 719.568 168.496C720.163 166.384 720.826 164.292 721.553 162.223C729.942 137.854 744.813 125.767 767.004 114.958Z"/><path fill="#226551" transform="scale(0.898438 0.898438)" d="M857.195 114.718C879.42 123.598 898.198 147.049 906.587 168.997C894.898 169.113 883.268 170.652 871.952 173.581C857.546 177.513 849.44 181.856 837.018 189.531C852.627 163.09 857.206 145.366 857.195 114.718Z"/><path fill="#FBD398" transform="scale(0.898438 0.898438)" d="M889.312 581.712C891.934 581.365 895.827 581.465 898.55 581.481C928.028 581.649 957.511 581.728 986.988 581.668C989.113 581.664 992.161 581.925 993.052 584.008C990.725 587.852 970.252 586.536 965.614 586.544L917.488 586.483C907.789 586.457 896.653 586.124 887.244 586.99C866.825 588.869 847.187 596.37 829.646 606.747C826.18 608.798 820.645 611.518 818.083 614.668C819.129 615.78 847.623 618.947 851.484 619.747C1034.54 657.675 1063.04 905.974 895.75 989.041C874.111 999.834 850.539 1006.21 826.409 1007.8C775.327 1011.08 725.074 993.658 686.984 959.462C654.626 930.383 632.886 891.39 625.396 848.487C604.761 730.295 684.191 622.227 805.978 615.976C812.172 609.901 818.228 606.568 825.613 602.316C846.037 590.559 865.693 583.453 889.312 581.712Z"/><path fill="#226551" transform="scale(0.898438 0.898438)" d="M1001.41 812.494C1002.3 814.549 1000.87 827.964 1000.56 831.095C996.794 871.242 980.385 909.158 953.7 939.388C925.226 971.562 886.708 993.161 844.406 1000.67C834.984 1002.35 826.693 1002.83 817.155 1003.48C816.632 1002.52 816.568 1002.93 817.368 1002.09C840.478 977.827 853.113 949.408 856.605 915.963C883.078 903.388 904.798 881.533 912.419 852.652C943.789 851.934 978.722 833.829 1001.41 812.494Z"/><path fill="#226551" transform="scale(0.898438 0.898438)" d="M627.355 812.663C651.819 835.823 679.97 849.937 713.828 852.599C715.989 859.053 717.755 863.572 720.633 869.826C728.729 887.417 750.382 908.491 768.863 914.659C769.92 921.424 770.342 927.597 771.832 934.45C778.204 963.756 790.372 981.403 809.052 1003.55C797.442 1002.59 785.951 1001.75 774.544 999.311C741.914 992.346 709.661 974.826 685.765 951.577C645.826 912.72 628.144 867.821 627.355 812.663Z"/><path fill="#226551" transform="scale(0.898438 0.898438)" d="M822.067 620.488C831.433 621.992 839.276 622.327 849.409 624.278C887.53 631.617 921.34 649.403 948.525 677.225C979.348 708.768 1001.95 758.773 1001.48 803.211C997.238 800.556 990.188 793.852 985.303 790.599C963.466 776.054 938.076 765.443 911.584 765.288C910.85 762.785 910.011 760.314 909.068 757.882C899.87 733.558 879.934 716.002 856.621 705.548C855.383 672.773 840.687 646.125 822.067 620.488Z"/><path fill="#226551" transform="scale(0.898438 0.898438)" d="M803.995 620.258C804.097 620.443 804.198 620.627 804.3 620.812C799.855 626.202 791.647 637.883 788.485 643.189C776.287 663.664 770.912 681.666 768.45 705.022C765.361 706.156 763.209 707.076 760.284 708.629C738.154 720.447 721.711 740.672 714.659 764.749C691.409 765.523 664.557 775.439 645.672 788.832C639.064 793.519 633.816 798.468 627.974 803.99C626.392 802.22 628.298 786.341 628.77 782.94C633.323 749.743 646.582 718.344 667.201 691.931C693.678 657.863 731.184 634.069 773.286 624.631C783.927 622.274 793.242 621.529 803.995 620.258Z"/><path fill="#226551" transform="scale(0.898438 0.898438)" d="M812.758 621.268C812.797 621.3 812.836 621.332 812.875 621.364C851.451 661.604 862.291 727.753 834.54 776.876C827.857 788.705 821.22 796.88 812.715 807.195C793.958 782.985 780.642 765.432 776.081 733.107C771.467 700.405 779.541 670.221 796.999 642.472C801.352 635.554 807.734 627.987 812.758 621.268Z"/><path fill="#226551" transform="scale(0.898438 0.898438)" d="M812.9 812.341C831.554 828.854 845.801 862.977 848.993 887.425C853.072 917.368 846.658 947.8 830.842 973.55C825.759 981.818 818.878 990.384 812.872 998.161C792.662 973.387 779.799 952.669 776.021 919.662C772.859 889.852 779.866 859.848 795.903 834.522C800.979 826.63 807.071 819.699 812.9 812.341Z"/><path fill="#226551" transform="scale(0.898438 0.898438)" d="M713.294 771.207C715.233 770.96 720.173 770.873 722.247 770.854C746.913 770.72 770.971 778.504 790.884 793.062C797.673 798.076 803.505 803.718 809.517 809.593C784.933 831.122 764.986 844.704 730.534 846.494C689.849 847.272 662.704 835.267 632.291 809.147C653.83 787.141 682.6 773.666 713.294 771.207Z"/><path fill="#226551" transform="scale(0.898438 0.898438)" d="M897.072 772.205C922.541 768.923 952.815 778.402 974.217 791.669C982.097 796.553 989.132 802.378 996.685 807.696C970.506 829.422 950.169 842.046 915.228 845.803C914.691 845.856 914.155 845.907 913.618 845.955C885.673 848.372 857.77 840.868 834.807 824.76C829.405 821.04 821.38 814.005 816.131 809.63C821.54 805.583 826.788 800.743 832.452 796.599C853.415 781.262 871.642 774.749 897.072 772.205Z"/><path fill="#226551" transform="scale(0.898438 0.898438)" d="M837.145 834.265C840.512 835.595 845.737 839.429 849.617 841.145C870.058 850.183 884.693 852.754 906.565 852.948C902.663 866.783 894.929 878.027 885.471 888.592C877.668 896.732 866.981 904.744 856.628 909.261C858.275 882.828 850.698 856.83 837.145 834.265Z"/><path fill="#226551" transform="scale(0.898438 0.898438)" d="M787.982 834.598L788.241 834.81C773.665 859.261 769.456 880.921 768.552 908.911C757.495 903.373 750.104 897.517 741.213 888.986C731.55 879.494 724.377 865.974 720.579 853.051C746.886 853.345 765.872 848.816 787.982 834.598Z"/><path fill="#226551" transform="scale(0.898438 0.898438)" d="M856.952 712.401C878.734 721.361 898.6 742.956 905.629 765.435C893.194 765.158 884.67 766.286 872.878 769.341C859.57 773.097 849.151 777.548 837.661 785.273C850.922 761.99 857.394 739.288 856.952 712.401Z"/><path fill="#226551" transform="scale(0.898438 0.898438)" d="M767.657 712.01C768.758 712.808 768.4 724.378 768.635 726.694C770.948 749.47 776.351 763.971 787.523 783.381C775.03 775.528 769.671 773.4 755.906 768.811C742.24 765.066 734.572 764.493 720.854 764.088C729.773 739.772 744.432 723.329 767.657 712.01Z"/><path fill="#FBD398" transform="scale(0.898438 0.898438)" d="M282.879 585.001L283.678 585.128C284.347 586.429 283.792 589.25 283.617 590.869C282.269 603.381 287.281 620.231 301.993 621.458C306.304 621.817 312.854 618.084 317.281 621.901C324.451 628.084 316.966 640.99 319.028 649.134C319.678 652.686 321.418 657.701 325.012 659.576C338.739 666.734 348.68 663.002 356.333 651.533C361.591 667.668 366.54 676.132 378.108 688.298C375.205 688.779 372.326 689.389 369.478 690.127C356.972 693.361 343.822 700.551 332.944 707.525C295.259 732.17 263.843 765.267 241.194 804.185C239.558 800.727 237.046 797.213 234.892 793.999C214.41 763.814 201.739 728.266 186.561 695.306C180.074 681.219 172.678 671.638 157.929 666.303C178.794 659.211 192.528 653.238 211.453 642.548C217.017 668.792 240.664 683.569 264.911 669.697C292.282 654.038 282.895 611.833 269.476 590.275C273.964 588.569 278.432 586.81 282.879 585.001Z"/><path fill="#FBD398" transform="scale(0.898438 0.898438)" d="M758.309 448.684C769.516 447.1 782.945 450.945 791.526 458.514C811.435 476.075 812.482 516.88 795.257 536.555C787.012 545.972 776.634 549.155 764.466 549.91C760.541 549.784 756.958 549.601 753.097 548.815C716.006 541.267 702.801 495.666 725.177 466.895C733.834 455.763 744.482 450.427 758.309 448.684Z"/><path fill="#226551" transform="scale(0.898438 0.898438)" d="M759.098 458.163C783.038 455.986 795.788 472.008 796.959 494.405C798.263 519.343 792.155 538.928 764.309 540.464C713.968 538.775 712.066 464.964 759.098 458.163Z"/><path fill="#FBD398" transform="scale(0.898438 0.898438)" d="M669.283 448.207C681.26 447.021 690.282 450.369 700.023 456.936C697.993 459.846 696.349 462.579 694.516 465.619C661.357 441.394 618.716 476.573 633.948 515.665C637.707 525.366 645.224 533.138 654.794 537.219C666.397 542.229 679.873 541.12 691.446 536.623L691.555 508.377C684.423 508.579 677.021 508.455 669.863 508.424L669.944 498.956L700.986 499.002C701.199 511.802 700.46 531.581 701.568 543.524C694.553 546.702 687.068 548.716 679.405 549.486C664.642 550.944 649.724 547.66 638.138 538.152C617.212 520.981 614.767 487.093 632.213 466.618C642.013 455.116 654.373 449.49 669.283 448.207Z"/><path fill="#FBD398" transform="scale(0.898438 0.898438)" d="M238.799 584.364C239.569 586.321 239.733 588.713 240.658 590.987C244.651 600.8 253.044 596.548 260.691 592.923C268.226 609.193 273.942 641.044 256.93 653.147C235.539 663.865 223.401 636.457 224.984 619.33C226.133 606.892 229.293 593.095 238.799 584.364Z"/><path fill="#FBD398" transform="scale(0.898438 0.898438)" d="M427.683 448.689C436.194 447.93 442.468 449.46 450.31 452.495C449.491 455.291 448.786 458.765 448.131 461.651C442.71 459.132 436.787 457.88 430.811 457.991C419.624 458.206 410.52 463.452 411.24 475.722C412.347 494.586 436.433 491.298 447.186 502.322C452.135 506.91 454.919 512.808 454.842 519.752C454.591 542.563 438.54 549.559 419.024 549.548C411.802 549.471 404.719 547.314 397.951 545.003L400.726 534.393C412.62 540.717 430.676 544.917 440.496 532.364C443.308 528.769 444.624 522.203 443.247 517.818C437.085 498.203 403.511 505.67 400.377 481.55C398.053 462.502 408.953 450.795 427.683 448.689Z"/><path fill="#FBD398" transform="scale(0.898438 0.898438)" d="M225.111 787.742C226.16 788.623 230.211 794.049 231.38 795.529C229.772 800.092 227.607 811.51 226.476 816.662C223.913 828.228 221.154 839.749 218.201 851.222C207.028 893.482 192.396 934.75 174.452 974.61C172.638 978.549 163.868 997.753 161.953 999.658C159.337 999.249 156.865 999.095 154.233 998.9C156.702 993.4 160.18 987.086 162.871 981.507C167.115 972.523 171.171 963.45 175.038 954.297C198.125 899.35 213.176 846.125 225.111 787.742Z"/><path fill="#FBD398" transform="scale(0.898438 0.898438)" d="M608.384 449.229C611.467 449.099 614.356 449.271 617.435 449.411C613.86 456.864 607.64 467.033 603.331 474.442C597.468 484.527 591.491 495.441 585.447 505.303C584.635 515.371 585.362 537.09 585.423 548.05L575.273 548.268C575.086 535.896 576.172 516.957 574.058 505.107C573.761 503.443 566.193 490.694 564.732 488.176C557.239 475.381 550.233 462.763 542.529 450.005C546.359 450.01 550.188 449.881 554.009 449.619C562.397 464.054 571.879 482.367 580.733 496.051C587.327 482.351 595.827 467.766 603.08 454.268C604.598 451.443 605.511 449.917 608.384 449.229Z"/><path fill="#FBD398" transform="scale(0.898438 0.898438)" d="M464.592 450.01L535.255 449.992L535.288 459.379C525.179 459.56 515.069 459.647 504.959 459.642L505.056 519.125L504.999 547.992L495.044 547.998L495.083 459.685C485.161 460.058 474.689 459.876 464.721 459.854C464.593 456.668 464.624 453.221 464.592 450.01Z"/><path fill="#FBD398" transform="scale(0.898438 0.898438)" d="M34.8766 584.324C46.4616 587.561 53.5141 589.589 65.6355 590.697C61.7112 594.368 56.7955 598.307 52.484 601.464C49.7627 603.073 47.1764 604.681 44.1785 605.712C24.1437 612.605 23.9958 595.518 34.8766 584.324Z"/><path fill="#FBD398" transform="scale(0.898438 0.898438)" d="M22.7064 555.322C34.5875 555.674 40.4191 569.405 48.0745 576.77C49.8058 578.435 56.0189 583.042 56.2344 584.907C45.1933 583.19 31.5222 580.335 25.0442 570.06C22.2624 565.647 21.4031 560.384 22.7064 555.322Z"/><path fill="#FBD398" transform="scale(0.898438 0.898438)" d="M736.214 580.941C738.742 581.151 744.92 582.638 747.601 583.17C765.856 586.79 793.379 595.324 809.284 604.921C804.459 604.6 793.031 601.337 787.98 599.904C770.333 594.897 751.749 591.12 736.214 580.941Z"/><path fill="#FBD398" transform="scale(0.898438 0.898438)" d="M462.947 580.207C466.995 579.669 473.216 579.993 477.281 580.282C465.827 587.154 456.423 588.447 443.488 587.351C437.18 586.109 433.284 583.813 427.994 580.372C443.596 582.573 447.387 582.039 462.947 580.207Z"/></svg>