<?xml version="1.0" encoding="utf-8" ?><svg xmlns="http://www.w3.org/2000/svg" xmlns:xlink="http://www.w3.org/1999/xlink" width="1024" height="1024" viewBox="0 0 1024 1024"><path fill="#11634A" d="M498.218 17.1661C772.121 9.7654 1000.07 225.993 1007.13 499.905C1014.18 773.816 797.671 1001.49 523.751 1008.21C250.316 1014.91 23.1299 798.863 16.0856 525.437C9.04125 252.011 224.802 24.5537 498.218 17.1661ZM512.75 1002.76C783.238 1002.13 1002.1 782.526 1001.8 512.037C1001.5 241.549 782.161 22.4237 511.673 22.3901C240.716 22.3566 21.1282 242.159 21.426 513.115C21.7239 784.071 241.794 1003.39 512.75 1002.76Z"/><path fill="#11634A" d="M501.11 39.3257C762.489 33.5647 979.068 240.743 984.905 502.119C990.742 763.496 783.627 980.136 522.252 986.049C260.77 991.964 44.0216 784.745 38.1823 523.261C32.343 261.777 239.625 45.0891 501.11 39.3257ZM529.247 980.132C787.421 970.41 988.828 753.232 979.095 495.058C969.362 236.885 752.175 35.4875 494.002 45.2314C235.844 54.9747 34.4615 272.146 44.194 530.304C53.9264 788.462 271.089 989.854 529.247 980.132Z"/><path fill="#11634A" d="M497.158 75.1512C738.609 67.0446 940.968 256.1 949.274 497.545C957.58 738.989 768.692 941.504 527.254 950.01C285.535 958.525 82.7314 769.368 74.4157 527.641C66.1 285.914 255.425 83.2674 497.158 75.1512ZM213.011 819.446C197.214 795.998 185.798 754.564 181.549 726.54C177.959 702.866 178.013 676.953 176.228 652.988C175.474 620.576 184.99 585.469 197.248 555.718C201.165 546.211 204.117 537.044 208.311 527.635C225.113 490.866 247.326 456.82 274.211 426.629L275.214 428.697C240.222 477.101 208.796 535.184 194.733 593.572C191.485 607.055 189.951 622.331 188.55 636.141C185.402 664.53 186.1 693.213 190.627 721.415C192.333 732.085 196.82 753.679 201.241 763.535C202.928 754.84 206.879 748.667 211.337 741.203C232.661 705.499 271.891 689.674 311.415 685.244C300.664 715.411 273.936 750.713 244.665 763.599C229.701 770.186 220.147 771.788 204.036 772.758C213.901 794.822 224.679 822.179 238.824 842.333C242.093 846.991 254.047 855.842 259.136 859.291C267.528 850.188 274.968 842.083 284.201 833.761C327.623 794.626 377.334 769.844 432.642 752.44C459.982 744.13 487.876 737.766 516.116 733.397C550.286 727.85 584.944 723.666 618.916 716.907C675.58 705.632 739.92 692.417 780.41 647.625C793.664 632.963 802.504 611.116 801.623 591.241C801.506 588.001 801.141 584.775 800.531 581.59C767.665 580.619 744.881 573.117 721.489 549.095C713.966 541.369 705.626 528.705 701.449 518.669C695.404 504.148 692.599 501.7 681.428 491.008C676.541 486.391 671.89 481.53 667.492 476.446C642.068 446.914 623.582 404.48 616.963 366.195C609.749 380.693 592.652 407.924 571.687 399.26C565.044 396.515 561.636 388.304 558.865 382.005C563.388 387.156 567.234 392.246 574.642 392.743C580.454 393.262 586.835 389.953 590.949 385.922C614.197 363.163 621.136 317.082 599.218 291.299C586.817 276.711 563.256 287.312 552.489 298.958C539.961 312.507 541.656 334.971 539.228 352.208C538.465 357.623 540.301 376.237 533.216 378.206C528.735 374.4 524.706 365.414 520.108 361.044C512.773 354.071 500.447 351.169 494.632 342.388C489.864 335.188 494.094 321.886 487.08 315.457C483.707 312.366 476.06 310.476 471.565 308.728C453.014 301.518 443.181 292.827 431.115 277.564C384.87 276.312 357.706 270.164 332.818 227.97C328.19 257.081 324.222 303.035 331.053 331.613C337.478 358.497 359.902 360.865 353.458 395.29C351.708 404.638 348.441 414.146 344.387 422.738C341.183 429.532 336.482 436.504 335.108 443.915C334.674 446.255 335.154 448.333 336.549 450.29C345.854 463.341 376.502 445.577 373.189 486.368C382.584 499.961 398.776 493.858 411.039 488.364C402.889 488.18 383.641 487.749 377.149 482.89L377.103 482.12C379.089 481.441 382.57 482.433 384.649 482.874C397.467 485.596 411.292 487.235 424.296 485.108C419.511 487.894 415.441 490.254 410.483 492.74C403.351 496.316 392.428 498.278 386.779 503.529C399.685 511.948 411.911 509.514 415.514 527.446C417.858 539.109 416.546 552.414 427.634 559.733C432.047 562.646 439.189 564.106 444.143 562.506C468.163 554.753 494.587 534.837 513.451 519.278C522.82 511.215 531.829 502.744 540.454 493.89C543.114 491.166 548.969 484.198 551.044 482.431L552.993 482.51C540.426 499.003 531.617 506.575 517.743 520.455C512.97 524.816 506.826 529.634 502.496 533.776C500.283 535.524 498.128 537.264 495.802 538.866C498.021 537.952 500.314 537.045 502.502 536.076C526.701 527.601 531.815 534.939 541.306 557.14C543.632 562.581 553.93 583.656 549.192 588.607C542.83 588.181 538.889 574.757 536.933 569.512C532.781 558.375 530.639 549.317 519.641 543.164C493.704 544.772 473.419 565.926 448.838 571.768C417.247 579.277 411.414 557.568 407.691 532.591C405.579 522.126 403.576 516.605 392.191 514.636C383.686 513.165 381.663 509.437 380.431 502.094C363.996 495.182 364.307 493.47 364.978 477.443C365.726 459.552 340.036 467.397 331.074 457.422C321.465 446.726 327.954 436.622 333.119 425.718C340.532 410.288 351.789 386.408 342.773 369.551C335.369 355.706 325.258 348.682 322.358 331.999C317.883 306.261 320.362 280.78 320.563 254.83C311.339 239.061 293.278 221.485 296.654 200.331C298.617 188.03 310.936 179.063 318.159 170.243C337.503 146.623 355.023 124.744 380.35 106.975C383.464 104.542 387.267 101.917 390.542 99.6474C386.968 101.053 383.292 102.261 379.662 103.672C367.882 107.114 351.975 114.043 340.701 118.976C253.114 158.055 180.885 224.966 135.235 309.315C80.3472 409 67.9013 526.585 100.704 635.552C118.57 695.433 149.471 750.616 191.189 797.14C196.454 802.945 207.113 814.46 213.011 819.446ZM461.261 939.446C462.052 933.979 465.723 925.024 468.119 920.016C482.587 890.023 507.076 865.271 533.545 845.551C587.518 805.339 651.8 784.613 713.531 759.875C737.02 750.463 762.177 740.482 783.449 726.693C796.712 718.094 805.971 706.613 815.002 693.911C816.231 692.282 818.335 688.856 819.524 687.041L813.328 691.678C779.344 718.467 729.62 731 688.664 741.638C655.04 750.371 619.987 757.047 586.709 766.127C506.844 787.92 424.242 821.267 362.645 878.014C354.774 885.266 343.506 896.349 336.667 904.601C363.809 917.59 398.037 927.449 427.511 933.924C438.546 936.349 450.202 937.524 461.261 939.446ZM543.354 941.127C553.059 940.517 562.739 939.567 572.378 938.28C600.511 934.057 619.077 929.053 645.781 920.978C654.913 907.497 671.314 890.864 682.653 879.46C702.644 859.358 726.344 839.221 748.7 821.84C807.427 776.18 863.858 730.621 876.764 653.087C880.521 630.517 881.661 613.663 878.889 590.558C870.226 582.71 857.978 574.65 847.794 568.899C854.766 617.776 847.136 669.624 816.556 709.492C791.237 742.5 752.259 764.29 717.177 785.31C702.074 794.302 687.216 803.698 672.619 813.488C624.848 845.616 583.115 881.755 550.879 929.966C548.439 933.615 545.908 937.583 543.354 941.127ZM207.101 760.729C210.98 756.566 218.14 751.171 222.764 747.43C242.528 731.442 262.552 717.688 284.928 705.611L285.231 707.215C268.853 718.484 252.372 729.502 236.983 742.137C233.301 745.16 227.088 750.067 223.787 753.359C220.153 756.094 217.082 758.896 213.702 761.917C218.358 759.987 223.122 757.366 227.618 755.022C234.329 751.71 244.097 746.514 250.864 743.963C236.919 753.531 227.029 760.286 211.533 767.341C251.38 760.775 272.41 744.489 293.188 709.951C296.888 703.8 300.179 698.755 302.709 691.875C294.336 692.464 286.631 694.434 278.661 696.934C255.755 704.12 234.079 717.186 220.325 737.268C215.242 744.69 211.221 752.716 207.101 760.729ZM928.116 413.045C919.908 407.708 906.949 402.127 897.881 396.833C882.275 387.721 867.752 378.238 852.843 368.057C836.607 356.801 820.708 345.067 805.166 332.872C773.921 308.161 721.681 261.828 680.123 260.158L681.012 260.647C684.481 262.532 689.465 264.539 693.189 266.456C703.617 271.824 713.387 277.21 723.117 283.633C773.375 316.81 871.584 400.712 928.116 413.045ZM451.818 275.758C448.641 276.185 445.011 276.59 441.894 277.142C458.622 295.821 477.885 304.786 502.759 306.001C511.641 306.435 535.761 305.755 541.398 298.951C552.618 285.41 566.707 275.082 585.214 275.907C595.284 276.356 600.305 274.602 610.211 271.62C618.196 269.171 626.201 266.783 634.223 264.458C652.452 259.282 668.859 255.213 687.714 253.17C699.378 252.758 711.145 252.591 722.76 254.314C773.377 261.824 816.914 290.779 857.445 320.172C869.575 328.968 898.411 348.771 911.989 353.541C899.025 343.727 886.392 334.112 873.998 323.576C838.932 293.766 804.651 259.968 760.18 244.749C739.198 237.568 716.156 232.658 693.919 234.209C645.428 237.528 608.11 252.256 563.835 271.806C548.451 278.599 527.461 289.791 511.461 291.96C490.783 294.762 468.302 288.518 451.818 275.758ZM833.131 230.097C809.41 199.158 747.608 152.282 713.019 134.311C710.535 132.773 696.251 124.344 693.872 123.282C694.762 124.874 706.281 133.6 708.922 136.126C736.784 163.055 768.819 191.244 801.295 212.154C810.674 218.193 823.099 224.679 833.131 230.097ZM491.271 288.106C489.494 288.051 487.7 287.848 486.038 288.401C486.605 288.873 486.334 288.795 486.746 288.863L491.692 289.353C505.597 290.478 522.123 288.64 534.332 281.455C519.869 284.998 509.332 287.724 494.265 287.977L491.271 288.106ZM797.972 571.498C795.364 564.12 792.586 557.067 787.175 551.2C765.999 546.554 752.013 542.719 732.72 531.703C729.429 529.824 715.871 521.08 714.188 520.391C730.577 544.742 749.918 563.797 779.994 569.796C785.919 570.935 791.939 571.504 797.972 571.498ZM415.457 145.802C408.648 149.476 400.538 156.325 394.229 160.933C396.689 159.998 417.214 148.631 420.015 146.785C421.449 146.423 432.44 140.921 434.415 139.925C443.571 135.313 452.218 131.366 461.603 127.341C510.769 106.253 551.76 95.736 604.955 92.6058C599.541 91.7601 593.866 90.1339 588.319 89.0964C578.786 87.313 567.605 90.1332 557.831 91.4871C511.006 97.9731 454.259 118.14 415.457 145.802ZM757.814 747.504C660.992 790.665 518.768 820.828 470.113 928.657C469.189 930.705 467.047 937.424 467.509 939.447C468.575 940.276 468.718 940.114 470.123 940.176C493.915 942.153 506.842 942.356 530.68 941.445C574.772 869.257 642.112 816.846 714.301 775.174C717.957 773.063 757.875 749.183 758.083 747.675L757.814 747.504ZM347.796 152.154C349.255 150.33 350.773 148.018 352.129 146.073C353.469 144.468 354.672 143.297 355.384 141.344C354.034 141.843 352.627 144.044 351.662 145.285C350.499 146.646 347.745 149.692 346.848 151.028C338.607 159.917 330.976 168.896 322.326 177.819C315.759 184.593 305.414 196.054 304.892 206.188C305.416 217.807 315.407 233.512 322.226 242.684C321.12 235.613 320.053 218.523 321.081 211.704C323.623 194.854 337.905 166.458 347.796 152.154ZM814.771 814.512C794.568 826.691 774.888 843.893 759.242 861.508L759.592 861.984C777.631 847.731 798.392 831.142 815.014 815.185L814.987 814.617L814.771 814.512ZM931.94 603.817C911.683 568.332 875.732 546.065 836.724 536.077C825.32 533.157 813.221 531.547 801.654 529.145C785.751 525.967 770.307 520.816 755.68 513.811C706.801 489.911 668.152 449.224 646.794 399.182C637.704 378.428 630.217 353.641 622.592 332.009C622.501 336.774 622.346 341.305 622.697 346.071C624.319 357.225 627.824 369.318 630.683 380.159C644.445 432.352 669.393 473.166 713.045 505.49C731.532 519.18 756.504 532.884 779.058 537.96C793.482 541.206 805.853 543.01 820.512 547.037C861.178 558.209 903.516 591.085 922.942 629.073L924.17 630.854C924.986 630.302 931.006 607.174 931.94 603.817ZM325.427 223.754C328.027 217.448 330.788 211.171 333.566 204.958C357.594 151.205 405.36 111.203 458.889 88.5378C460.861 87.703 468.545 84.8729 469.75 83.7474L469.166 83.7356C457.145 84.9903 437.338 86.8292 426.191 90.4582C403.746 97.7647 378.689 118.691 364.334 136.779C350.045 154.785 321.75 201.034 324.652 223.512C325.384 223.787 325.196 223.776 325.427 223.754ZM919.872 645.493C913.069 629.365 901.158 610.874 888.005 599.317C888.205 602.304 888.355 605.294 888.455 608.285C890.979 678.641 861.078 736.525 809.603 782.788C785.737 804.236 758.904 824.049 734.009 844.596C706.922 866.952 686.614 887.321 662.993 912.71L661.388 914.481L661.869 914.745L664.934 913.574C672.552 910.825 680.448 907.549 687.979 903.766C707.384 894.019 729.471 884.269 745.959 869.868C750.493 865.908 754.957 858.92 759.019 854.383C764.584 848.17 769.849 842.68 776.088 837.219C786.12 828.292 796.809 820.132 808.064 812.809C813.611 809.242 824.679 803.226 829.26 799.375C834.742 794.767 843.232 783.816 848.049 777.812C879.864 738.459 904.207 693.613 919.872 645.493ZM738.414 176.251C697.064 171.619 635.419 181.992 595.873 192.719C530.039 210.577 465.176 237.274 395.872 238.077C377.192 238.294 363.365 237.988 345.178 231.788C353.469 241.582 359.8 249.94 371.44 256.52C383.933 263.511 397.734 267.851 411.98 269.268C431.706 271.297 454.513 268.157 473.843 264.429C493.764 260.64 513.486 255.87 532.936 250.135C554.682 243.576 575.755 235.76 597.334 228.821C610.045 224.7 622.869 220.939 635.792 217.541C642.391 215.856 649.957 214.652 656.322 212.873C631.666 213.406 599.373 221.12 575.358 226.543C517.846 239.531 458.748 256.692 399.198 250.379C387.815 249.172 376.448 247.29 365.715 243.356L367.384 242.242C434.554 257.164 494.909 240.51 560.435 225.453C574.506 222.219 588.999 218.236 603.116 215.432C636.336 208.865 670.149 205.771 704.009 206.201C751.396 207.219 791.145 217.18 829.423 246.314C839.658 254.103 849.52 261.98 858.763 270.971C860.134 272.304 865.793 277.987 866.955 278.567C868.971 281.327 876.992 289.856 879.592 292.105C874.87 284.906 870.015 277.795 865.032 270.774C858.515 262.12 851.491 253.391 844.804 244.832C809.284 231.568 777.081 209.096 748.545 184.567C745.252 181.736 741.787 178.998 738.414 176.251ZM496.354 336.785C502.076 348.186 512.571 348.018 521.406 355.927C526.861 360.81 529.488 367.786 534.477 372.154C532.877 362.339 527.184 357.405 519.54 351.463C513.471 346.745 504.225 343.566 500.107 336.587C498.934 334.598 498.052 330.49 497.063 328.26C496.687 331.351 496.387 333.666 496.354 336.785ZM838.391 564.788C830.165 561.255 822.793 558.46 814.17 555.948C810.892 554.993 805.013 553.788 802.12 552.762C812.051 575.199 815.837 600.777 806.248 624.04C775.831 697.824 684.434 712.526 615.879 729.635C602.868 732.882 590.516 736.674 577.596 740.059C509.596 758.617 439.197 781.403 383.355 825.933C357.839 846.281 338.325 869.868 320.333 896.846L331.985 902.379C334.325 898.997 337.367 895.667 340.214 892.684C397.695 835.438 459.65 801.379 536.577 775.831C570.241 764.651 604.419 756.238 638.9 748.056C697.757 733.64 778.953 721.443 822.547 675.247C837.883 658.996 840.631 621.411 841.085 599.679C841.358 586.64 839.219 577 838.391 564.788ZM937.665 568.677C937.751 566.179 937.886 564.156 938.119 561.675C930.909 549.144 919.763 539.425 908.056 531.193C906.002 529.749 901.686 526.753 899.305 526.466C913.766 536.339 924.384 547.414 933.653 562.216C934.682 563.859 936.349 567.567 937.386 568.771L937.665 568.677ZM626.527 326.434C633.416 350.528 643.548 381.503 654.076 403.99C674.18 447.283 707.687 482.954 749.638 505.723C769.789 516.903 787.831 522.536 810.388 526.672C821.161 528.648 833.245 530.538 843.662 533.429C860.419 538.099 876.316 545.432 890.745 555.147C905.027 564.74 916.734 575.812 926.14 590.296C927.313 592.102 931.251 600.006 932.161 600.14C932.641 598.723 932.816 598.035 933.138 596.614C934.067 590.715 935.026 584.821 936.015 578.932C922.736 547.927 900.024 530.812 869.492 518.148C841.408 506.499 811.946 501.93 783.633 492.223C735.81 475.826 690.887 439.43 669.974 392.759C668.617 389.729 665.499 381.288 664.049 379.06C656.444 367.378 647.632 355.952 639.512 344.58C637.023 341.094 628.527 328.361 626.527 326.434ZM706.348 261.094L715.06 264.664C748.283 277.99 785.572 312.036 814.13 333.926C838.733 353.006 864.344 370.75 890.851 387.082C901.411 393.642 916.021 402.49 927.131 408.211C923.048 390.198 919.039 376.51 912.581 359.449C878.691 347.684 859.758 331.754 830.567 311.6C795.957 287.706 757.299 267.615 715.081 262.299C712.257 261.605 709.254 261.399 706.348 261.094ZM285.589 877.156C295.491 883.286 305.553 889.152 315.765 894.749C368.745 807.031 467.393 763.899 563.249 738.727C565.646 738.097 572.927 736.507 574.259 735.192L573.762 735.175C529.497 742.206 486.214 747.853 442.993 760.339C374.202 780.212 316.658 813.052 266.694 864.662C273.052 868.754 279.255 873.071 285.589 877.156ZM685.907 401.707C688.48 405.944 690.867 410.077 693.922 413.993C699.443 423.261 713.236 437.624 721.609 444.942C740.378 461.348 764.575 474.587 788.153 482.895C833.866 499.004 889.082 502.422 925.886 537.307C931.078 542.228 935.137 548.029 939.15 553.851C940.903 535.681 940.675 508.663 939.965 490.694C926.665 491.072 913.368 491.571 900.078 492.192C886.571 492.711 867.409 492.654 854.051 490.957C792.427 483.131 739.572 451.678 694.731 410.144C691.537 407.268 688.852 404.852 685.907 401.707ZM889.876 472.493C899.705 472.929 909.55 472.85 919.37 472.257C923.903 472.005 933.879 470.818 937.804 471.158C940.328 466.876 931.911 425.497 929.963 417.862C865.556 423.225 801.615 405.043 746.701 371.329C701.474 343.562 668.18 298.885 623.831 272.124C616.411 274.469 608.394 276.529 601.165 278.982C611.967 287.32 625.44 303.309 634.287 313.852L662.762 347.727C711.221 404.598 769.662 447.628 843.171 465.498C853.434 467.91 863.832 469.709 874.31 470.886C877.64 471.275 887.156 471.925 889.876 472.493ZM904.342 340.137C902.075 331.818 890.498 311.58 884.954 305.107C878.105 296.572 869.719 289.522 861.833 282.035C830.009 251.823 802.888 232.7 760.437 220.711C683.682 199.034 613.643 229.241 541.845 253.246C512.719 262.984 483.314 269.497 453.237 275.452C461.621 279.602 470.272 283.145 479.733 284.365C521.502 289.752 563.487 264.682 601.733 251.005C630.173 240.835 654.403 233.336 684.331 230.592C730.567 226.353 774.213 239.661 812.03 265.999C826.538 276.103 842.299 289.556 855.903 301.125L901.493 339.509C902.468 340.384 904.728 342.753 905.713 342.847C905.157 341.625 905.035 341.279 904.342 340.137ZM732.014 171.271C701.737 143.095 687.139 128.975 641.489 129.312C640.061 129.322 636.013 129.474 634.75 129.703C561.014 136.651 502.999 174.911 436.131 200.012C404.567 212.094 371.417 219.534 337.716 222.099C339.644 224.733 341.23 226.688 343.353 229.173C366.681 236.869 408.016 234.295 432.614 231.012C456.89 227.288 480.91 222.051 504.533 215.33C566.806 198.117 626.648 174.846 691.971 171.627C704.915 170.989 719.087 170.165 732.014 171.271ZM373.185 174.528C383.469 165.245 393.533 155.786 404.608 147.497C448.279 114.81 516.715 90.1091 571.207 85.6051C553.215 83.3318 522.047 80.4061 503.871 81.7384C486.151 82.2713 477.886 85.3475 461.609 92.2376C414.637 112.121 373.086 145.306 346.771 189.351C343.458 194.905 340.574 201.451 337.65 207.258C349.845 192.884 360.083 186.619 373.185 174.528ZM618.485 303.626C625.42 316.411 631.545 323.44 639.767 335.051C656.379 358.512 672.64 379.199 692.834 399.569C739.843 446.987 801.682 479.052 868.917 482.951C892.704 484.331 915.549 483.055 939.517 482.908C939.383 480.763 939.223 473.483 938.312 472.277C928.419 473.589 904.119 477.002 894.63 475.535C877.567 475.786 857.906 472.878 841.334 468.92C776.814 453.511 721.885 417.978 676.58 370.211C665.813 358.725 655.424 346.89 645.431 334.725C637.324 324.876 627.449 312.14 618.485 303.626ZM418.381 201.349C436.174 195.441 450.582 189.857 467.571 182.255C526.344 155.957 629.215 103.118 693.653 135.099C694.088 135.316 694.521 135.536 694.953 135.759C673.879 119.355 649.188 103.57 622.599 97.5858C616.628 96.2418 607.986 96.3008 601.901 96.7839C581.768 98.5 561.656 100.556 541.963 105.287C490.49 117.654 440.317 138.921 394.893 166.043C372.077 179.666 352.275 197.253 335.203 217.505L334.148 218.758C343.525 217.249 352.857 216.557 362.21 215.066C381.248 211.895 400.024 207.31 418.381 201.349ZM891.618 414.658C902.424 415.705 913.279 416.152 924.133 415.997C917.704 414.145 910.656 412.525 904.451 410.089C868.928 396.146 837.59 372.65 806.674 350.726C766.064 321.928 728.102 287.404 682.437 266.746C678.344 264.894 670.737 261.272 666.315 261.593C654.259 264.194 642.964 267.193 631.044 270.385C639.076 277.088 647.457 283.405 655.601 289.981C677.094 307.338 696.376 327.672 717.832 345.022C767.163 385.652 827.881 409.982 891.618 414.658Z"/><path fill="#11634A" d="M145.92 410.452C150.381 413.021 158.227 422.158 162.026 426.18C183.382 448.788 197.221 477.573 198.273 508.901C198.514 516.067 199.143 538.176 194.263 543.675C145.043 513.317 133.017 463.982 145.92 410.452ZM186.308 532.911C187.241 533.72 187.582 533.962 188.622 534.634C188.927 533.656 188.274 532.979 187.674 531.729C186.159 528.662 184.004 525.201 182.232 522.209L183.421 520.622C183.59 515.837 162.866 462.282 159.747 453.02C159.466 452.301 152.251 433.477 153.124 434.486L153.368 435.129L153.737 435.15C156.115 439.7 159.103 447.234 161.213 452.166C169.473 471.049 177.994 490.24 184.751 509.684C187.242 516.852 191.217 528.125 192.81 535.377C194.869 493.308 189.627 463.917 160.057 431.179C156.417 427.22 152.705 423.329 148.921 419.507C144.071 442.065 144.817 464.137 152.135 486.118C158.68 505.779 171.374 519.18 186.308 532.911Z"/><path fill="#1D3A2C" fill-opacity="0.97647059" d="M182.232 522.209C180.512 519.467 173.853 506.317 173.04 505.364L173.417 506.042L173.753 505.98C177.167 510.435 180.025 515.886 183.421 520.622L182.232 522.209Z"/><path fill="#116D54" d="M159.747 453.02C159.466 452.301 152.251 433.477 153.124 434.486L153.368 435.129L153.737 435.15C156.115 439.7 159.103 447.234 161.213 452.166L159.747 453.02Z"/><path fill="#F9EDEB" fill-opacity="0.015686275" d="M187.674 531.729C188.274 532.979 188.927 533.656 188.622 534.634C187.582 533.962 187.241 533.72 186.308 532.911L187.674 531.729Z"/><path fill="#11634A" d="M276.407 558.965C279.675 563.729 268.296 597.304 265.501 604.069C263.209 609.644 260.535 615.053 257.497 620.259C243.335 644.618 219.522 660.655 192.581 667.848C190.077 656.288 193.165 639.779 197.316 628.902C210.313 594.846 244.561 573.27 276.407 558.965ZM251.47 589.309L253.712 589.166C232.771 612.874 218.327 637.981 199.445 661.059C211.087 655.652 218.455 652.557 228.937 644.708C248.034 630.406 257.123 613.441 264.58 591.227C267.301 583.121 269.638 576.164 270.794 567.476C258.465 573.037 246.781 579.929 235.95 588.029C210.168 607.546 200.177 627.252 195.852 658.805C206.117 640.903 222.007 622.781 235.442 607.085C239.567 602.266 247.152 593.289 251.47 589.309Z"/><path fill="#116D54" fill-opacity="0.98039216" d="M251.47 589.309C253.708 586.461 259.582 579.647 262.296 577.375C260.429 580.96 256.19 585.693 253.712 589.166L251.47 589.309Z"/><path fill="#11634A" d="M92.545 566.132C106.663 569.037 133.75 587.025 144.279 596.985C166.308 617.823 174.351 650.228 174.661 679.799C171.578 678.449 167.983 677.541 164.767 676.106C117.886 655.181 100.099 613.698 92.545 566.132ZM146.722 651.912L148.072 651.036C152.338 655.034 158.728 661.253 163.235 664.603C151.074 643.705 134.215 619.582 119.714 600.647L120.587 599.622C137.337 617.143 158.12 642.999 169.36 664.537C166.982 653.934 165.108 644.142 161.737 633.748C151.379 601.816 126.914 587.521 98.3997 573.48C108.247 610.986 116.941 641.518 153.3 663.792C158.518 666.988 164.115 669.886 169.429 673.026C159.56 664.517 155.718 661.735 146.722 651.912Z"/><path fill="#116D54" fill-opacity="0.94117647" d="M140.222 645.033C139.014 643.734 137.933 642.857 137.288 641.261C140.531 643.619 145.051 648.158 148.072 651.036L146.722 651.912L142.629 647.517C141.951 646.196 141.44 646.031 140.222 645.033Z"/><path fill="#1D3A2C" fill-opacity="0.91764706" d="M116.349 596.253C114.744 594.406 113.538 592.872 112.069 590.937L112.188 590.144L111.656 590.255L111.758 589.764L111.435 589.77L112.01 589.865L111.772 590.276L112.394 590.189C113.771 591.412 115.995 594.257 117.257 595.775L116.349 596.253Z"/><path fill="#116D54" fill-opacity="0.8509804" d="M117.257 595.775L120.587 599.622L119.714 600.647C118.583 599.206 117.465 597.711 116.349 596.253L117.257 595.775Z"/><path fill="#76AC91" fill-opacity="0.57647061" d="M140.222 645.033C141.44 646.031 141.951 646.196 142.629 647.517C142.032 647.218 140.759 645.636 140.222 645.033Z"/><path fill="#11634A" d="M620.106 604.249C636.08 601.548 651.237 612.258 654.025 628.217C656.814 644.177 646.187 659.391 630.242 662.267C614.175 665.164 598.817 654.437 596.007 638.354C593.197 622.271 604.008 606.972 620.106 604.249ZM630.058 658.436C653.402 649.464 646.869 605.311 619.69 608.029C596.352 616.558 603.191 661.607 630.058 658.436Z"/><path fill="#11634A" d="M553.893 604.7C560.499 603.88 570.052 605.721 576.71 606.795C576.182 611.577 575.52 616.343 574.724 621.088C573.05 617.466 571.747 614.199 568.619 611.571C561.117 605.268 545.288 607.504 539.531 615.069C531.343 625.827 533.851 644.646 544.773 652.748C551.97 658.086 558.712 658.174 566.985 656.934C567.016 653.017 567.422 640.831 565.329 638.089L558.578 635.128C561.722 635.005 578.187 634.437 579.484 635.749C574.721 640.279 575.856 642.113 575.802 648.361C575.771 651.924 575.904 655.439 576.432 658.978C573.147 660.04 569.776 660.811 566.356 661.282C555.91 662.772 543.566 661.914 534.916 655.259C529.109 650.806 525.364 644.182 524.544 636.91C522.245 617.304 535.688 606.132 553.893 604.7Z"/><path fill="#11634A" d="M578.909 295.59C590.763 294.968 598.135 299.423 602.603 310.481C610.591 330.25 605.647 364.163 582.231 371.032C581.201 371.334 580.722 370.752 580.136 370.188C580.597 365.885 590.107 361.265 593.095 356.586C596.28 351.598 596.404 350.969 598.229 345.353C598.481 344.407 598.704 343.454 598.898 342.494C600.612 334.215 601.284 320.03 596.269 312.698C590.542 304.324 582.357 308.841 578.24 308.207C578.848 306.186 583.816 303.763 585.816 302.652C577.585 303.443 576.038 303.502 570.92 310.182C568.53 313.301 561.795 323.706 557.956 323.239L557.078 322.071C556.343 317.978 562.74 309.156 565.084 305.765C568.71 300.52 572.861 297.486 578.909 295.59Z"/><path fill="#11634A" d="M570.295 324.337C579.243 326.298 589.187 326.104 593.264 335.84C597.965 345.329 593.59 356.998 583.11 360.081C569.374 364.121 567.974 360.796 562.323 375.878C561.824 377.491 561.885 377.695 560.745 378.982L560.09 378.847C554.648 368.903 564.611 358.447 574.003 357.369C575.347 357.035 579.39 355.322 579.994 354.206C589.371 336.902 547.513 343.268 570.295 324.337ZM588.191 349.688C591.281 344.167 590.912 338.683 584.971 335.606C579.918 332.989 576.246 334.57 571.316 333.666L570.923 334.32C572.103 335.359 573.654 335.448 575.233 335.825C584.421 338.017 585.487 341.873 587.778 349.796L588.191 349.688Z"/><path fill="#11634A" d="M502.588 605.05C508.674 605.149 514.481 604.9 520.618 605.263C511.369 608.684 509.337 614.696 504.256 623.216C498.279 632.777 493.93 644.411 496.765 655.916C497.562 659.152 502.395 659.36 505.231 660.449L505.711 660.637C499.718 660.331 486.043 660.835 481.979 660.225L481.761 659.545C482.803 659.276 483.839 658.984 484.868 658.669C490.147 653.579 486.887 640.483 484.669 634.523C480.827 624.199 475.158 614.99 467.561 607.051C465.028 606.462 464.246 606.269 461.896 605.198C469.822 604.899 477.982 605.055 485.933 605.115C483.929 605.827 482.102 606.198 480.746 607.736C480.771 610.825 491.472 629.696 493.672 633.613C498.42 624.852 502.761 617.189 506.514 607.958L502.588 605.05Z"/><path fill="#11634A" d="M411.025 604.18C425.188 606.495 443.951 606.167 458.218 604.338C457.471 608.683 457.248 613.175 456.935 617.579C452.417 607.664 448.321 609.378 438.573 609.777C438.669 619.888 437.479 647.868 438.979 655.614C440.516 660.2 444.158 659.82 448.408 660.813C438.955 661.371 433.417 659.51 421.507 660.96C423.305 660.112 426.886 659.561 428.134 657.992C430.494 655.026 429.346 616.396 429.4 609.578C417.006 609.137 413.94 607.844 408.386 619.823C408.953 614.376 409.969 609.541 411.025 604.18Z"/><path fill="#11634A" d="M367.072 642.419C367.909 647.051 368.993 656.41 373.767 657.222C392.932 660.601 395.123 645.394 380.25 635.419C357.095 619.89 370.034 597.029 396.615 606.097L396.298 612.165L394.692 614.056C394.279 612.095 393.558 611.153 392.534 609.391C388.585 607.331 382.896 606.256 379.595 608.82C369.478 616.922 381.235 625.159 388.01 629.889C394.696 634.573 400.142 641.002 397.037 649.639C392.154 663.227 377.67 662.803 366.494 659.086C366.257 653.406 366.584 648.058 367.072 642.419Z"/><path fill="#11634A" d="M388.835 304.692C394.269 304.04 413.492 304.58 417.879 307.335L417.495 307.831C416.786 307.735 416.074 307.666 415.361 307.622C411.695 307.373 407.536 307.888 403.881 308.161C385.69 309.521 374.841 316.548 361.465 328.351C358.092 331.4 351.784 338.547 347.108 338.59C343.152 338.627 339.17 330.321 342.832 327.156C343.568 327.257 345.258 327.589 345.869 327.048C353.002 320.732 359.405 314.396 368.049 310.084C375.131 306.551 381.055 305.615 388.835 304.692Z"/><path fill="#11634A" d="M385.814 368.175C396.061 360.241 404.031 358.066 415.567 347.484C409.545 358.196 394.557 376.389 381.94 379.502C378.152 380.436 375.364 380.575 371.412 380.742L369.965 379.306C381.772 371.814 382.581 369.998 378.77 356.4C378.055 353.845 377.37 351.101 376.601 348.524C382.471 355.336 384.353 359.328 385.814 368.175Z"/><path fill="#1D3A2C" d="M365.534 449.151C369.837 448.975 379.196 448.287 379.795 454.178L379.112 454.4L378.243 453.421C373.92 449.311 367.045 451.668 361.634 450.362C362.878 449.332 363.754 449.461 365.534 449.151Z"/><path fill="#116D54" fill-opacity="0.96078432" d="M369.965 379.306L371.412 380.742C369.903 380.993 369.36 381.222 367.924 380.677C368.351 379.591 368.258 380.055 369.965 379.306Z"/><path fill="#116D54" fill-opacity="0.98431373" d="M396.298 612.165C396.074 613.556 396.175 614.67 395.386 615.484C395.069 614.912 394.877 614.673 394.692 614.056L396.298 612.165Z"/><path fill="#11634A" d="M895.89 661.195C898.832 651.005 900.878 640.802 902.883 630.4C903.584 626.76 904.283 623.423 905.518 619.915C905.9 629.967 902.68 649.164 899.283 658.441L897.848 658.029C897.315 659.173 896.746 660.258 895.89 661.195Z"/><path fill="#116D54" d="M895.89 661.195C896.746 660.258 897.315 659.173 897.848 658.029L899.283 658.441C897.39 665.514 892.286 678.645 888.348 684.554L887.309 682.776C890.647 675.571 892.93 668.5 895.89 661.195Z"/><path fill="#116D54" fill-opacity="0.98823529" d="M888.348 684.554C887.016 688.219 878.165 702.853 875.4 705.992C875.429 705.134 886.092 685.237 887.309 682.776L888.348 684.554Z"/><path fill="#8D8983" fill-opacity="0.0078431377" d="M626.527 326.434C628.527 328.361 637.023 341.094 639.512 344.58C647.632 355.952 656.444 367.378 664.049 379.06C665.499 381.288 668.617 389.729 669.974 392.759C690.887 439.43 735.81 475.826 783.633 492.223C811.946 501.93 841.408 506.499 869.492 518.148C900.024 530.812 922.736 547.927 936.015 578.932C935.026 584.821 934.067 590.715 933.138 596.614C932.816 598.035 932.641 598.723 932.161 600.14C931.251 600.006 927.313 592.102 926.14 590.296C916.734 575.812 905.027 564.74 890.745 555.147C876.316 545.432 860.419 538.099 843.662 533.429C833.245 530.538 821.161 528.648 810.388 526.672C787.831 522.536 769.789 516.903 749.638 505.723C707.687 482.954 674.18 447.283 654.076 403.99C643.548 381.503 633.416 350.528 626.527 326.434Z"/><path fill="#B6B2AA" fill-opacity="0.0078431377" d="M415.457 145.802C454.259 118.14 511.006 97.9731 557.831 91.4871C567.605 90.1332 578.786 87.313 588.319 89.0964C593.866 90.1339 599.541 91.7601 604.955 92.6058C551.76 95.736 510.769 106.253 461.603 127.341C452.218 131.366 443.571 135.313 434.415 139.925C432.44 140.921 421.449 146.423 420.015 146.785C416.8 145.497 418.614 147.755 415.457 145.802Z"/><path fill="#706861" fill-opacity="0.027450981" d="M622.697 346.071C622.346 341.305 622.501 336.774 622.592 332.009C630.217 353.641 637.704 378.428 646.794 399.182C668.152 449.224 706.801 489.911 755.68 513.811C770.307 520.816 785.751 525.967 801.654 529.145C813.221 531.547 825.32 533.157 836.724 536.077C875.732 546.065 911.683 568.332 931.94 603.817C931.006 607.174 924.986 630.302 924.17 630.854L922.942 629.073C924.603 626.984 929.096 607.348 929.377 603.508C929.473 602.197 925.184 597.587 924.116 595.233C921.535 589.545 914.274 582.943 909.714 578.384C888.811 557.714 862.454 543.422 833.726 537.182C813.335 532.612 791.89 529.985 772.736 522.877C703.991 497.364 654.51 439.366 634.028 369.775C631.283 360.448 626.909 350.618 624.229 341.048C623 342.977 624.063 343.896 622.697 346.071Z"/><path fill="#706861" fill-opacity="0.011764706" d="M899.305 526.466C901.686 526.753 906.002 529.749 908.056 531.193C919.763 539.425 930.909 549.144 938.119 561.675C937.886 564.156 937.751 566.179 937.665 568.677L937.386 568.771C936.349 567.567 934.682 563.859 933.653 562.216C924.384 547.414 913.766 536.339 899.305 526.466Z"/><path fill="#116D54" d="M513.451 519.278C522.82 511.215 531.829 502.744 540.454 493.89C543.114 491.166 548.969 484.198 551.044 482.431L552.993 482.51C540.426 499.003 531.617 506.575 517.743 520.455L513.451 519.278Z"/><path fill="#116D54" d="M889.876 472.493C899.705 472.929 909.55 472.85 919.37 472.257C923.903 472.005 933.879 470.818 937.804 471.158L938.312 472.277C928.419 473.589 904.119 477.002 894.63 475.535C896.41 474.185 903.585 475.334 905.991 475.001C908.352 474.675 910.298 474.298 912.723 474.049C906.174 472.948 893.96 475.224 889.876 472.493Z"/><path fill="#8D8983" fill-opacity="0.027450981" d="M394.229 160.933C400.538 156.325 408.648 149.476 415.457 145.802C418.614 147.755 416.8 145.497 420.015 146.785C417.214 148.631 396.689 159.998 394.229 160.933Z"/><path fill="#8D8983" fill-opacity="0.011764706" d="M865.032 270.774C870.015 277.795 874.87 284.906 879.592 292.105C876.992 289.856 868.971 281.327 866.955 278.567L867.694 278.065C866.729 275.647 863.081 275.042 863.198 271.789L865.032 270.774Z"/><path fill="#8D8983" fill-opacity="0.019607844" d="M708.922 136.126C706.281 133.6 694.762 124.874 693.872 123.282C696.251 124.344 710.535 132.773 713.019 134.311C711.093 134.829 710.367 134.704 708.922 136.126Z"/><path fill="#116D54" fill-opacity="0.95686275" d="M551.044 482.431C555.196 476.966 559.264 471.754 563.051 466.017C564.3 464.125 567.52 457.53 568.497 456.669C568.243 460.971 556.432 478.032 552.993 482.51L551.044 482.431Z"/><path fill="#8D8983" fill-opacity="0.023529412" d="M213.702 761.917C217.082 758.896 220.153 756.094 223.787 753.359C225.315 755.111 224.726 754.559 227.618 755.022C223.122 757.366 218.358 759.987 213.702 761.917Z"/><path fill="#116D54" fill-opacity="0.98823529" d="M274.211 426.629C277.493 422.781 281.037 418.395 284.683 414.96L285.008 415.079C281.771 419.895 278.692 424.066 275.214 428.697L274.211 426.629Z"/><path fill="#E0E1D4" fill-opacity="0.023529412" d="M685.907 401.707C688.852 404.852 691.537 407.268 694.731 410.144C694.72 412.109 694.846 412.194 693.922 413.993C690.867 410.077 688.48 405.944 685.907 401.707Z"/><path fill="#706861" fill-opacity="0.011764706" d="M390.542 99.6474C387.267 101.917 383.464 104.542 380.35 106.975C380.556 105.712 380.681 105.183 380.673 103.893L379.662 103.672C383.292 102.261 386.968 101.053 390.542 99.6474Z"/><path fill="#388379" fill-opacity="0.94509804" d="M295.894 698.278C293.354 701.545 288.632 704.798 285.231 707.215L284.928 705.611C288.551 703.023 292.164 700.696 295.894 698.278Z"/><path fill="#116D54" fill-opacity="0.98823529" d="M365.715 243.356C362.365 242.25 361.162 241.751 358.035 240.124L358.488 240.135L358.263 240.018L358.534 240.317C359.589 239.968 365.854 241.838 367.384 242.242L365.715 243.356Z"/><path fill="#116D54" d="M891.021 519.988C894.671 521.278 896.992 523.521 899.654 526.152C897.372 525.861 892.329 522.061 891.021 519.988Z"/><path fill="#E0E1D4" fill-opacity="0.011764706" d="M706.348 261.094C709.254 261.399 712.257 261.605 715.081 262.299C715.07 263.481 715.014 262.869 715.284 264.131L715.06 264.664L706.348 261.094Z"/><path fill="#E0E1D4" fill-opacity="0.027450981" d="M351.662 145.285L352.129 146.073C350.773 148.018 349.255 150.33 347.796 152.154L346.848 151.028C347.745 149.692 350.499 146.646 351.662 145.285Z"/><path fill="#B6B2AA" fill-opacity="0.023529412" d="M813.328 691.678L819.524 687.041C818.335 688.856 816.231 692.282 815.002 693.911C813.436 692.608 813.887 693.388 813.328 691.678Z"/><path fill="#E0E1D4" fill-opacity="0.019607844" d="M495.802 538.866C498.128 537.264 500.283 535.524 502.496 533.776L502.502 536.076C500.314 537.045 498.021 537.952 495.802 538.866Z"/><path fill="#76AC91" fill-opacity="0.17647059" d="M351.662 145.285C352.627 144.044 354.034 141.843 355.384 141.344C354.672 143.297 353.469 144.468 352.129 146.073L351.662 145.285Z"/><path fill="#E0E1D4" fill-opacity="0.011764706" d="M901.493 339.509L904.342 340.137C905.035 341.279 905.157 341.625 905.713 342.847C904.728 342.753 902.468 340.384 901.493 339.509Z"/><path fill="#E0E1D4" fill-opacity="0.082352944" d="M491.271 288.106L494.265 287.977L491.793 288.803L491.692 289.353L486.746 288.863L491.271 288.106Z"/><path fill="#76AC91" fill-opacity="0.26274511" d="M486.746 288.863C486.334 288.795 486.605 288.873 486.038 288.401C487.7 287.848 489.494 288.051 491.271 288.106L486.746 288.863Z"/><path fill="#E0E1D4" fill-opacity="0.019607844" d="M664.934 913.574L661.869 914.745L661.388 914.481L662.993 912.71L664.934 913.574Z"/></svg>