<?xml version="1.0" encoding="utf-8" ?><svg xmlns="http://www.w3.org/2000/svg" xmlns:xlink="http://www.w3.org/1999/xlink" width="1024" height="1024" viewBox="0 0 1024 1024"><path fill="#314C50" d="M177.98 510.777C169.114 482.448 175.7 453.404 183.386 425.581C199.535 367.125 231.458 315.51 273.392 272.003C334.5 207.469 418.939 170.141 507.797 168.38C570.807 167.633 632.696 185.072 686.047 218.607C700.695 227.66 717.333 239.44 729.792 251.457C726.817 252.389 723.977 253.649 721.101 254.855C686.496 221.357 626.933 194.083 580.197 183.868C523.092 170.86 463.458 174.438 408.318 194.181C392.14 199.851 378.506 205.343 363.928 214.575C348.334 224.449 340.824 238.662 337.291 256.603C332.173 282.6 331.349 312.134 341.296 337.082C344.678 345.562 349.017 352.504 353.892 360.025C387.241 357.029 420.723 343.443 435.188 310.855C442.296 294.843 442.335 275.941 435.899 259.853C419.985 220.073 383.504 218.915 367.355 258.939C362.765 270.289 362.382 284.964 367.538 296.399C371.898 306.069 382.502 314.539 393.417 308.556C388.292 303.894 384.259 300.386 382.006 293.522C378.69 283.418 382.783 270.69 393.964 267.851C397.782 266.869 401.834 267.458 405.216 269.485C423.76 280.671 413.335 316.29 391.768 318.456C373.104 320.371 360.521 305.337 357.322 288.042C352.69 262.997 371.176 226.125 398.245 222.577C425.88 218.955 445.402 254.547 447.47 278.764C451.825 329.755 406.817 362.493 360.14 366.719C364.993 370.754 373.007 376.369 378.269 380.19C393.387 391.276 408.865 401.862 424.679 411.93C437.724 399.524 456.659 399.939 473.33 400.2C466.759 409.745 456.299 414.439 445.503 417.347C466.97 429.026 465.698 427.875 489.783 427.87L527.872 427.821L635.342 427.617C652.096 427.438 668.851 427.381 685.606 427.445C687.132 436.436 695.901 458.876 699.415 467.44C700.075 468.956 700.982 471.1 702.01 472.437C705.44 476.903 712.047 481.109 713.37 486.757C713.809 488.629 712.331 493.103 711.537 494.972C706.583 506.637 700.685 518.218 695 529.559C686.008 547.497 676.881 565.899 667.102 583.418L661.944 592.032C661.232 593.282 660.548 594.566 659.742 595.752L650.463 595.717C610.809 595.518 571.154 595.562 531.5 595.847C516.801 595.882 497.277 594.57 482.761 596.138C476.038 596.864 459.415 604.738 452.431 607.69C464.965 613.062 472.083 618.91 482.508 627.453C464.367 627.166 446.568 629.399 431.058 616.797C412.763 626.108 381.593 645.668 366.531 659.653C376.78 660.603 388.173 663.006 397.47 667.558C417.635 677.431 437.696 696.866 445.212 718.327C451.978 737.38 449.301 754.964 441.128 773.014C431.845 793.515 412.728 809.771 389.691 798.309C364.632 785.84 349.977 750.218 362.967 724.44C366.538 717.354 372.946 711.321 380.65 708.971C388.3 706.595 396.588 707.46 403.583 711.363C426.738 724.258 415.766 769.809 390.044 755.596C379.406 749.718 377.962 723.681 397.861 721.489L398.529 721.421C394.443 718.897 391.192 716.911 386.18 716.404C381.831 715.923 377.477 717.268 374.155 720.116C357.444 734.538 363.49 769.2 377.568 783.324C384.189 789.966 393.32 795.895 403.034 795.786C427.319 795.514 441.806 762.936 441.891 742.096C441.284 701.57 399.428 667.061 360.356 667.23C343.282 679.146 332.511 711.748 332.916 731.974C333.357 753.932 338.579 785.612 353.476 802.441C357.971 807.52 375.468 814.252 381.831 817.817C423.288 837.459 468.824 847.621 514.705 847.374C522.266 847.333 529.67 846.808 537.278 846.493L546.933 852.958C492.48 859.962 433.224 849.793 383.096 828.051C364.487 819.76 346.666 809.804 329.85 798.304C267.737 756.791 219.75 697.336 192.282 627.861C180.772 598.56 165.035 540.512 177.98 510.777ZM187.969 506.688C190.599 502.72 192.85 499.171 194.839 494.79C197.187 489.617 198.94 484.355 201.468 479.229C208.371 465.233 220.923 453.285 236.58 450.183C255.121 446.761 271.299 457.829 286.233 467.234C283.142 456.887 278.686 450.524 268.818 445.431C254.459 438.021 240.601 435.704 229.661 422.655C220.301 411.493 217.717 397.648 225.109 384.474C226.941 381.208 229.63 376.596 233.593 376.101L234.291 376.804C234.211 380.148 230.547 385.214 228.723 388.351C215.249 411.523 243.903 434.639 265.45 435.046C278.223 435.288 296.004 425.331 297.868 411.416C298.755 404.797 295.723 403.536 291.39 399.754L290.877 398.597C291.087 393.623 294.161 392.145 297.831 389.382C286.708 357.738 258.062 368.982 253.274 363.573L253.502 362.455C255.459 360.321 257.144 359.396 260.13 358.927C281.388 355.585 307.308 372.725 311.313 394.063C313.131 403.748 305.626 419.162 299.849 426.77C310.594 426.025 330.726 426.811 342.454 426.838C372.661 426.705 402.867 427.065 433.062 427.919C421.803 419.831 409.094 412.35 398.162 404.099C372.086 384.417 349.686 369.949 318.732 358.406C287.334 346.698 251.241 333.934 221.76 358.368C215.276 363.742 207.242 384.291 204.03 392.518C202.807 395.552 201.452 399.16 200.077 402.071C203.301 398.761 204.712 397.534 208.558 394.874C210.444 393.862 211.572 393.009 213.657 392.976L214.709 393.553C215.393 399.453 202.316 407.229 199.533 412.172C193.789 422.373 189.607 434.367 187.437 445.903C183.874 464.836 178.339 488.932 187.969 506.688ZM290.347 398.59L290.549 400.5C288.759 410.41 279.099 417.398 269.551 413.036C265.929 411.384 263.134 408.332 261.804 404.581C257.216 392.011 271.073 380.894 282.585 386.868C287.424 389.379 288.882 393.713 290.347 398.59ZM355.789 530.253L352.514 540.729C357.423 542.787 361.648 544.057 367.067 544.12C379.511 543.639 390.409 540.245 394.542 526.689C397.503 516.979 395.01 509.088 387.376 502.676C379.451 495.234 363.766 493.126 362.173 480.56C361.781 477.463 362.59 473.166 364.819 470.933C372.005 463.736 380.496 466.8 388.211 470.358C388.863 467.491 389.429 465.124 389.784 462.199C383.366 461.295 379.516 460.547 372.997 461.145C349.461 464.604 344.996 489.977 364.074 502.673C374.117 509.357 390.199 517.212 382.02 531.967C380.626 534.481 376.521 537.477 373.659 537.892C364.557 539.294 361.093 536.846 355.789 530.253ZM492.877 500.708C489.527 494.693 478.145 470.12 474.586 461.698C474.257 461.581 473.929 461.464 473.6 461.348C469.709 461.506 463.047 461.978 459.364 461.761C466.299 473.259 481.184 497.618 484.506 510.677C485.349 513.995 484.952 538.311 485.001 543.478C488.669 543.353 493.06 543.089 496.652 543.299C497.745 529.277 494.026 512.332 499.686 500.372C505.7 487.626 513.595 473.831 520.142 461.032L512.517 460.961C508.776 468.718 504.956 476.435 501.055 484.113C498.778 488.547 494.464 496.326 492.877 500.708ZM576.928 471.848L578.98 462.687C573.288 461.724 565.625 460.206 559.935 461.198C533.981 464.179 516.752 481.908 519.615 508.879C520.761 519.671 526.173 529.193 534.751 535.852C549.837 547.211 564.62 545.075 581.911 543.29C582.002 533.78 581.362 517.508 581.831 509.013C577.369 508.97 572.558 508.832 568.125 508.964C566.004 508.921 564.506 508.659 562.655 509.617L562.522 510.388C565.076 512.35 566.824 512.432 570.057 512.958C570.126 517.999 570.91 534.901 568.834 538.65C565.738 540.582 559.925 539.907 556.524 539.065C528.095 532.023 523.536 483.051 547.745 468.749C557.828 462.792 567.919 466.292 576.928 471.848ZM347.558 667.704C333.648 669.6 321.397 674.882 308.334 679.631C284.494 688.297 258.029 691.105 233.003 686.251C244.917 709.995 269.357 736.744 288.402 755.142C297.78 764.065 307.773 772.32 318.306 779.846C325.665 785.196 333.645 790.334 340.421 796.419C336.728 787.518 332.943 778.646 330.345 769.347C323.397 744.471 323.981 716.037 333.978 692.063C335.945 687.285 338.302 682.676 341.025 678.283C342.968 675.173 346.664 671.328 347.782 667.959L347.558 667.704ZM420.983 467.083C420.772 492.738 420.913 518.394 421.406 544.045L431.124 543.917L432.702 543.911C433.25 542.18 433.049 536.883 433.027 534.849C432.786 512.117 433.325 489.268 432.988 466.546C440.828 466.66 445.998 466.893 453.849 468.16L456.225 461.531C446.203 461.399 435.861 461.084 425.872 461.236C420.407 461.358 401.132 460.353 398.43 463.132C397.868 465.06 397.804 464.169 398.397 465.904C401.775 468.784 415.643 467.167 420.983 467.083ZM187.41 517.18C175.922 538.044 187.014 579.607 193.038 601.959C194.972 609.133 200.156 625.712 205.077 631.029C207.624 633.78 214.152 638.541 213.519 642.781C211.387 643.718 211.5 642.703 208.643 642.981C211.837 650.534 222.591 669.964 226.839 676.965C253.065 683.729 280.402 682.37 305.576 672.544C323.286 665.631 336.415 660.057 355.794 658.816C361.873 654.09 368.236 647.618 374.276 643.289C397.883 626.373 427.287 607.112 454.072 596.047C433.587 595.943 409.797 595.258 389.532 595.776L330.852 595.995C320.995 596.031 306.118 596.45 296.693 595.645C304.242 605.243 311.548 617.226 310.04 630.087C308.406 644.027 299.357 655.076 286.005 659.836C260.108 669.02 217.909 650.095 221.587 618.742C222.817 608.255 232.751 598.09 241.17 592.778C261.848 579.732 276.308 582.122 285.927 556.677C268.307 566.988 254.955 578.091 233.086 572.184C218.843 568.338 210.105 559.675 202.479 547.442C197.93 540.144 192.542 519.38 187.41 517.18ZM270.125 656.529C280.648 655.962 298.24 649.4 298.474 636.313C298.539 632.698 289.593 628.877 292.701 624.747C295.789 620.942 298.842 620.291 297.612 614.416C294.502 599.566 277.023 587.97 262.539 589.067C245.594 592.232 223.424 606.918 226.91 626.639C230.149 644.964 252.975 656.973 270.125 656.529ZM230.626 343.148C232.001 342.477 233.389 341.833 234.79 341.218C269.148 326.322 313.256 347.94 344.718 360.462L344.385 359.921C319.118 318.357 323.73 276.36 334.779 231.729C292.224 258.397 256.58 300.598 229.454 342.24L228.643 343.896L229.173 344.079L230.626 343.148ZM275.014 498.205C265.217 486.675 253.863 475.183 237.745 473.685C235.5 473.487 233.244 473.456 230.995 473.593C217.118 476.272 208.462 483.007 200.634 494.785C196.82 500.525 192.517 507.851 194.333 515.247C200.478 535.008 218.141 556.076 241.198 549.948C251.926 547.097 261.479 540.5 269 532.797C271.548 530.101 272.709 528.562 274.894 525.535C287.011 532.631 301.311 534.863 308.862 519.96C311.308 515.211 311.672 509.659 309.866 504.632C308.046 499.535 304.245 495.388 299.326 493.132C290.443 488.961 281.586 491.171 275.014 498.205ZM624.782 460.607C612.147 464.33 603.424 469.271 596.805 481.331C591.06 492.026 589.775 504.557 593.23 516.194C598.637 534.672 612.008 543.44 630.574 545.003C639.823 543.848 648.973 541.426 654.836 533.46C671.403 510.951 666.453 463.805 633.091 460.439C630.747 460.203 627.199 460.418 624.782 460.607Z"/><path fill="#314C50" d="M238.314 487.642C255.246 485.841 265.004 499.721 270.996 513.189L270.715 513.742C265.121 524.592 257.721 532.619 245.933 536.371C238.675 537.747 231.466 536.97 225.026 533.141C219.016 529.624 214.73 523.775 213.186 516.984C211.784 510.886 213.014 504.479 216.575 499.334C221.846 491.578 229.684 489.16 238.314 487.642Z"/><path fill="#314C50" d="M288.119 498.793C294.911 497.297 301.639 501.559 303.19 508.339C304.74 515.119 300.534 521.881 293.766 523.486C286.921 525.11 280.064 520.845 278.496 513.986C276.927 507.128 281.248 500.306 288.119 498.793Z"/><path fill="#141410" fill-opacity="0.011764706" d="M261.457 530.189C262.678 530.816 262.298 530.338 262.855 531.424L261.833 533.372C260.579 532.272 260.313 532.449 260.15 531.199L261.457 530.189Z"/><path fill="#314C50" d="M625.883 465.102C639.571 465.224 647.374 473.813 650.552 486.309C655.153 504.403 654.053 533.952 632.32 539.965C600.198 543.243 592.464 473.775 625.883 465.102Z"/><path fill="#314C50" d="M272.62 610.782C280.693 609.288 288.459 614.588 290.011 622.65C291.562 630.712 286.319 638.516 278.268 640.126C270.135 641.753 262.233 636.444 260.665 628.299C259.097 620.154 264.464 612.29 272.62 610.782Z"/><path fill="#314C50" d="M290.549 400.5C288.759 410.41 279.099 417.398 269.551 413.036C265.929 411.384 263.134 408.332 261.804 404.581C257.216 392.011 271.073 380.894 282.585 386.868C287.424 389.379 288.882 393.713 290.347 398.59L290.549 400.5Z"/><path fill="#A6A4A6" fill-opacity="0.019607844" d="M200.077 402.071C201.452 399.16 202.807 395.552 204.03 392.518C206.051 395.703 205.114 394.069 208.558 394.874C204.712 397.534 203.301 398.761 200.077 402.071Z"/><path fill="#B1B6B4" fill-opacity="0.094117649" d="M230.626 343.148L229.173 344.079L228.643 343.896L229.454 342.24L230.626 343.148Z"/><path fill="#EDECEC" fill-opacity="0.10588235" d="M290.877 398.597L291.39 399.754L290.549 400.5L290.347 398.59L290.877 398.597Z"/><path fill="#314C50" d="M511.868 20.5598C516.517 24.2974 523.792 31.9085 528.222 36.383L555.727 64.204L647.444 156.201C653.16 162.105 658.728 168.149 664.144 174.329C665.989 176.408 672.483 184.176 674.352 185.348C689.361 194.763 704.589 203.825 719.3 213.765C726.621 219.43 737.047 227.2 743.886 233.452C748.304 237.345 752.364 241.354 756.575 245.463C753.095 245.52 751.221 245.677 747.768 246.145L747.139 245.724C739.583 240.623 731.789 233.318 724.459 227.717C714.148 219.837 703.43 212.701 692.413 205.851C619.764 159.765 532.217 143.267 447.777 159.751C306.157 186.438 187.73 311.856 162.159 452.651C160.999 459.038 160.089 467.377 159.721 473.834C157.921 505.391 156.252 543.898 162.394 575.003C180.535 666.87 238.46 753.091 315.474 805.995C381.844 851.261 461.565 875.504 541.712 867.826C552.934 866.751 564.719 866.025 575.903 863.736C625.113 853.665 672.158 831.362 712.852 802.15C724.409 793.853 735.72 783.823 746.136 774.291C750.155 773.823 754.706 773.399 758.647 772.681C741.453 791.923 726.19 803.345 704.624 817.705C695.959 823.474 685.057 828.905 677.654 835.889C670.838 842.32 663.837 849.676 657.275 856.426C645.87 868.278 634.4 880.068 622.866 891.794L511.468 1003.66C487.276 978.552 462.704 953.814 437.762 929.452L384.423 875.894L351.503 843.084C344.998 836.498 343.867 831.555 334.748 827.217C328.815 824.395 321.309 819.784 315.828 816.08C294.993 801.773 275.426 785.702 257.341 768.045C239.463 750.47 220.843 725.332 206.463 704.803C200.607 696.443 197.095 687.013 190.492 679.55C185.367 673.759 178.66 667.758 172.978 662.441C166.603 656.478 160.332 650.404 154.169 644.222L66.4924 557.419C56.5556 547.653 46.6917 537.812 36.9015 527.898C34.3143 525.275 22.3153 514.027 22.3293 511.192C24.2278 508.174 30.677 501.883 33.3992 499.092C42.8429 489.481 52.3995 479.98 62.0672 470.594L143.555 390.822C154.576 380.349 165.472 369.745 176.241 359.013C180.402 354.923 186.141 349.763 189.927 345.678C194.842 340.376 200.529 329.861 204.515 323.36C209.927 314.638 215.56 306.056 221.408 297.621C231.149 285.351 238.95 275.839 249.508 264.206C255.48 258.168 261.064 252.182 267.185 246.107C273.22 240.405 279.345 235.381 285.552 229.906C279.317 233.475 276.66 234.882 269.905 237.108C258.596 240.505 248.798 240.289 237.087 238.489C237.161 239.095 237.681 243.514 237.839 243.911C238.459 265.536 237.7 277.554 221.607 295.103C221.332 295.403 221.022 295.627 220.702 295.874C205.659 309.106 180.304 314.985 161.475 313.198C124.652 309.703 94.2911 310.051 74.044 346.098C66.5332 359.47 63.6505 373.12 67.4625 388.662C71.4055 404.737 85.4487 412.432 101.255 407.859C113.582 404.243 124.031 392.577 130.115 381.556C135.768 371.316 140.338 349.327 128.116 341.863C124.99 340.004 118.864 341.344 115.496 342.62C106.971 345.852 103.595 354.155 100.326 361.957C120.214 358.472 125.924 372.757 111.009 385.383C104.508 390.886 93.8755 387.873 89.1435 379.95C88.2076 369.177 89.8204 366.222 94.1056 356.212C102.309 336.516 133.119 320.857 141.207 350.52C150.26 383.719 108.487 431.874 75.1085 410.825C51.1372 395.709 57.1721 358.206 71.2237 337.348C76.4133 329.569 82.9114 322.747 90.4296 317.186C120.369 295.374 153.557 312.036 187.091 304.505C223.264 296.382 236.673 271.392 229.246 236.17C217.324 231.199 212.293 229.389 209.705 215.566C197.269 213.83 183.629 217.487 176.015 228.023C171.654 234.032 169.934 241.561 171.255 248.868C175.834 274.394 213.377 282.359 221.314 253.949C222.07 251.242 222.827 247.794 224.287 245.428C226.088 244.834 225.197 244.883 227.063 245.292C232.163 250.508 224.439 263.832 220.114 268.182C198.024 290.401 164.102 272.987 164.336 242.893C164.439 233.955 168.132 225.433 174.583 219.245C184.044 210.025 196.473 208.502 209.073 208.596C208.986 200.706 208.926 195.089 211.509 187.554C217.832 169.112 238.052 161.053 256.014 167.918C263.681 170.829 269.853 176.705 273.136 184.221C281.962 204.586 270.012 221.86 251.057 229.514C249.111 230.3 248.25 230.31 246.437 229.467C245.466 227.89 245.658 228.714 245.761 226.928C248.15 222.909 257.107 219.323 261.332 215.628C279.417 200.425 266.385 172.528 244.029 172.243C219.78 171.933 215.813 191.211 215.419 210.471C228.083 214.604 231.741 219.019 235.959 231.397C240.363 231.733 244.745 232.318 249.155 232.638C269.121 234.086 286.321 224.962 295.96 207.396C311.037 179.915 301.898 148.296 305.687 118.963C310.181 84.1707 346.534 54.0054 381.775 59.0493C401.978 61.9089 417.365 77.7315 413.284 99.3549C408.814 122.918 379.288 146.586 355.112 141.514C328.689 135.608 327.959 110.633 349.27 97.1554C360.731 89.9073 368.301 86.8757 382.025 90.0105C386.714 93.9838 388.946 98.3076 387.672 104.601C386.649 109.62 383.595 113.992 379.234 116.681C374.069 119.814 365.023 120.763 361.608 114.491C359.01 109.719 360.927 103.601 362.314 98.6996C352.849 102.494 337.72 111.398 341.977 124.506C347.325 136.387 362.036 137.327 372.795 133.452C398.964 124.028 426.49 86.0093 390.263 68.6733C379.389 63.4697 365.686 64.5273 354.133 69.149C345.791 72.5438 338.147 77.4482 331.583 83.6161C302.986 110.424 314.89 150.298 310.321 184.563C308.979 194.632 306.039 201.915 302.131 211.052C299.979 215.123 298.43 217.98 295.897 221.793C300.456 218.015 304.648 215.439 309.105 212.002C315.053 207.882 321.092 203.894 327.217 200.043C332.134 196.994 340.366 192.433 344.459 188.862C348.791 185.082 354.533 178.803 358.706 174.469L384.335 148.023L469.863 62.3533L497.332 34.8923C501.552 30.6786 507.515 24.4089 511.868 20.5598ZM512.177 50.2836C520.653 57.2248 535.814 73.1232 543.993 81.2751L600.729 138.045C607.973 145.356 619.464 158.448 627.101 164.377C629.961 166.598 649.039 174.277 653.617 176.396C655.001 177.041 655.331 177.219 656.845 177.635C656.842 176.551 655.088 175.083 654.139 174.054C653.814 173.823 646.979 166.669 646.07 165.736C638.481 157.895 630.846 150.099 623.165 142.348L551.41 70.166C539.125 57.9148 524.356 42.4016 511.415 31.2964C487.346 54.3573 463.89 79.7821 440.004 103.15C423.782 119.02 407.55 134.916 391.762 151.213C384.801 158.398 376.923 165.875 370.454 173.377C368.276 175.373 366.654 177.141 364.656 179.308C367.446 177.793 370.258 176.318 373.092 174.886C377.293 173.31 393.963 166.574 397.038 164.2C405.8 157.434 416.961 144.788 424.896 136.589C445.002 116.148 465.292 95.887 485.761 75.8094C491.879 69.7844 506.237 54.5678 512.177 50.2836ZM511.846 992.893C521.105 983.791 530.023 974.351 539.161 965.128C575.173 928.777 610.792 891.896 647.24 855.997C650.629 852.502 653.987 848.977 657.313 845.423C648.746 849.584 635.402 853.416 628.143 858.736C621.621 863.516 615.97 870.062 610.296 875.813L582.366 904.043L532.431 953.975C525.864 960.621 518.408 967.137 512.343 974.171L434.795 897.015L411.417 873.617C406.27 868.457 401.165 862.666 395.275 858.35C391.613 855.667 367.894 844.699 363.368 843.436C375.857 856.957 389.153 869.648 402.23 882.589L439.59 920.248L490.049 970.915C497.303 978.158 504.291 985.987 511.846 992.893ZM153.093 590.637L156.022 593.651C155.507 590.762 154.644 586.622 154.342 583.807C144.107 571.91 131.717 560.732 120.549 549.673C107.837 537.085 95.254 524.148 82.1601 511.985C96.4096 497.048 112.499 482.41 127.132 467.729C134.65 460.187 146.053 449.994 152.577 441.821C152.706 439.826 153.103 435.741 152.892 433.941C135.63 450.654 118.549 467.552 101.651 484.632C94.129 492.085 80.9484 504.206 74.3906 511.502C91.9461 529.947 109.759 548.145 127.823 566.092C134.878 573.06 147.026 583.727 153.093 590.637ZM511.89 74.8682C494.319 91.0635 477.637 108.176 460.797 125.113L430.201 155.317C434.452 154.132 439.35 152.638 443.607 151.699C465.484 128.409 488.418 107.188 510.642 84.4988L511.75 83.9918C514.523 85.1786 572.167 143.209 581.85 151.915L591.32 153.494C578.086 139.44 562.923 125.086 549.112 111.284C538.564 100.743 522.948 84.0534 511.89 74.8682ZM216.708 217.874C219.125 224.944 221.228 226.807 228.225 228.889C226.217 223.86 224.373 221.022 219.186 218.847C218.366 218.507 217.54 218.182 216.708 217.874ZM32.4283 511.768L170.573 648.813C174.1 652.416 177.121 655.506 180.387 659.376C176.513 651.128 173.202 638.739 168.992 631.878C165.936 626.896 154.688 615.853 150.324 611.556L124.204 585.912L74.0871 535.9C66.1519 527.897 58.2211 519.248 50.2103 511.466L127.008 435.431C136.49 426.213 145.902 416.922 155.244 407.561C159.209 403.611 166.054 396.992 169.325 393.015C171.563 390.292 180.67 368.348 180.287 365.95C159.397 386.014 138.495 406.898 117.791 427.233C89.5191 455.002 59.7435 483.155 32.4283 511.768ZM431.084 868.389C432.83 870.054 434.722 871.676 436.351 873.449C452.721 889.924 468.868 906.664 485.376 922.997C494.23 931.759 503.387 940.225 512.333 948.895C532.103 928.749 552.644 909.305 572.547 889.271C579.521 882.252 587.24 875.616 593.648 868.092L593.329 867.664C588.533 868.636 584.672 869.972 580.603 872.741C571.521 878.919 563.699 888.117 556.069 895.967C542.024 910.418 527.388 926.383 512.342 939.613C497.511 925.207 482.799 910.68 468.207 896.034C459.599 887.424 451.194 878.519 442.378 870.135L431.084 868.389Z"/><path fill="#141410" fill-opacity="0.023529412" d="M417.551 137.695C418.951 138.782 418.822 138.881 419.044 140.193L418.191 141.243C416.867 141.275 417.522 141.109 416.309 142.225C415.971 142.556 416.184 142.452 415.642 142.465C416.915 141.147 417.276 140.641 418.329 139.123L417.551 137.695Z"/><path fill="#EDECEC" fill-opacity="0.027450981" d="M364.656 179.308C366.654 177.141 368.276 175.373 370.454 173.377L373.092 174.886C370.258 176.318 367.446 177.793 364.656 179.308Z"/><path fill="#EDECEC" fill-opacity="0.019607844" d="M654.139 174.054C655.088 175.083 656.842 176.551 656.845 177.635C655.331 177.219 655.001 177.041 653.617 176.396C653.479 174.983 653.497 175.53 654.139 174.054Z"/><path fill="#314C50" d="M716.307 488.644C716.942 488.169 717.758 487.315 718.214 487.559C728.414 493.027 753.455 514.433 762.984 518.794L763.359 519.733C762.415 521.397 758.743 523.741 756.99 525.102C750.457 529.971 746.615 531.095 738.63 528.663C742.841 534.094 753.934 527.888 755.833 528.413C760.842 547.781 767.397 567.201 772.525 586.961C783.852 629.614 792.044 673.038 797.034 716.886C798.152 726.164 801.641 750.825 801.561 758.81C792.95 763.615 782.598 765.19 773.021 767.152C738.676 774.189 697.593 774.861 663.902 764.126C672.383 744.179 681.022 724.622 687.346 703.823C688.852 698.87 690.425 693.91 691.981 688.973C693.783 679.983 697.539 669.379 699.447 659.744C704.619 633.641 710.12 603.976 711.099 577.532C711.366 576.134 711.347 575.593 711.386 574.187L711.575 571.499L711.648 568.114C711.577 566.472 711.621 564.611 711.622 562.952C711.918 561.451 711.923 561.541 711.682 560.033C710.848 561.088 711.126 561.171 711.021 562.801L710.884 567.567C710.799 568.877 710.729 570.188 710.674 571.5C710.597 573.225 710.448 575.116 710.54 576.823L710.467 577.391C710.182 579.006 709.817 580.25 710.119 581.851L709.874 587.677C709.673 588.574 709.583 588.52 709.667 589.391C707.669 614.21 701.177 642.946 695.552 667.179C694.611 671.235 691.287 683.966 689.775 687.691C685.131 705.834 669.084 747.163 659.855 763.823C642.684 758.75 626.942 752.839 612.338 741.989C604.099 735.439 600.608 731.396 594.136 723.312C610.165 694.021 627.929 666.032 643.884 636.967C658.725 610.498 672.801 583.606 686.095 556.327C698.726 530.982 706.984 515.248 716.307 488.644Z"/><path fill="#A49855" d="M716.307 488.644C716.942 488.169 717.758 487.315 718.214 487.559C728.414 493.027 753.455 514.433 762.984 518.794L763.359 519.733C762.415 521.397 758.743 523.741 756.99 525.102C750.457 529.971 746.615 531.095 738.63 528.663C726.68 520.506 723.787 501.653 716.307 488.644Z"/><path fill="#314C50" d="M775.115 263.095C783.691 267.016 814.747 309.629 820.46 320.491C824.074 327.361 834.138 346.109 838.89 351.15C851.526 364.553 866.41 377.913 879.75 390.708L959.595 467.873L985.402 492.661C991.484 498.426 998.914 505.112 1004.52 511.177C1000.34 516.503 990.902 525.144 985.733 530.074C977.767 537.679 969.884 545.37 962.085 553.145L864.193 649.628C856.635 657.422 842.521 668.238 836.939 676.616C825.114 694.367 818.341 709.058 803.899 725.469C803.819 721.693 803.592 717.748 803.452 713.951C810.167 703.075 816.742 695.359 823.593 682.995C850.198 634.98 863.656 584.27 866.576 529.672C870.095 453.321 849.332 377.819 807.267 314.004C795.864 296.86 785.709 284.631 772.134 269.528C773.671 266.841 774.043 265.967 775.115 263.095ZM976.084 511.639C954.572 531.82 933.058 553.895 911.612 574.435C900.01 585.342 888.563 596.413 877.275 607.645C871.458 613.371 861.656 622.517 857.205 628.986C853.28 634.69 849.521 647.31 846.439 654.515L845.269 657.079L845.551 657.473C846.238 656.855 846.939 656.251 847.587 655.595L937.474 567.165C955.612 549.486 977.863 529.004 994.94 510.966C961.801 481.375 929.616 449.197 897.791 418.149C886.982 407.616 876.07 397.187 865.058 386.864C858.694 380.867 851.708 374.002 845.074 368.441C846.956 373.741 854.162 393.452 857.176 396.607C884.148 424.848 914.036 452.547 942.369 479.262C949.312 485.868 956.18 492.552 962.972 499.313C966.949 503.232 971.749 508.259 976.084 511.639ZM942.25 512.585L893.014 559.889C885.293 567.272 875.348 576.27 868.356 584.313C866.743 586.169 865.548 594.615 865.06 597.518C866.402 596.07 867.996 594.437 869.256 592.955C881.231 580.915 892.935 568.814 905.074 556.921C919.498 542.792 937.116 527.593 949.917 512.24C925.623 486.627 899.638 462.586 874.545 437.761C871.878 435.123 868.43 431.972 865.332 429.83C865.853 432.266 867.175 439.461 868.673 440.999C892.532 465.492 918.386 488.043 942.25 512.585Z"/><path fill="#EDECEC" fill-opacity="0.039215688" d="M846.439 654.515L847.587 655.595C846.939 656.251 846.238 656.855 845.551 657.473L845.269 657.079L846.439 654.515Z"/><path fill="#314C50" d="M89.9054 610.192C101.511 609.426 111.271 612.371 120.561 619.45C131.976 628.172 139.421 641.104 141.234 655.356C142.416 664.347 141.604 674.409 135.709 681.725C132.356 685.887 127.704 688.533 122.351 688.94C115.24 689.482 108.665 686.243 103.339 681.802C95.3157 675.111 88.3302 664.194 87.5044 653.592C87.1257 648.73 88.2317 643.892 91.4965 640.154C94.0644 637.213 97.6767 635.325 101.593 635.112C105.654 634.89 109.358 636.551 112.231 639.368C115.196 642.275 117.648 646.488 117.549 650.748C117.47 654.147 115.949 657.645 113.404 659.926C109.175 663.717 103.335 663.577 98.0368 663.344C102.545 672.662 108.648 680.24 119.726 681.993C122.795 682.479 126.436 681.462 128.783 679.39C133.238 675.456 134.827 669.013 135.087 663.265C135.959 641.11 117.206 617.513 94.4283 616.461C87.6229 616.103 79.7916 619.257 74.9241 624.161C57.4481 641.769 65.2925 674.791 81.2576 690.525C96.3369 705.387 118.801 711.242 139.346 711.06C148.266 710.982 157.097 709.221 166.052 709.55C185.759 709.596 206.23 716.477 220.057 730.968C234.417 746.019 238.513 764.248 238.146 784.459C254.475 782.559 267.76 786.062 281.629 794.282C311.598 812.047 313.995 838.571 312.457 870.344C311.726 883.88 311.438 895.519 314.405 908.926C320.753 939.304 354.434 965.575 385.688 957.45C402.151 953.171 411.363 938.172 405.051 921.578C399.603 907.252 391.165 897.749 377.596 890.768C367.017 884.421 347.266 885.499 341.992 898.389C336.48 911.864 352.261 921.484 361.982 925.152C360.567 920.62 359.135 915.187 361.079 910.598C363.902 903.936 372.415 903.654 378.091 906.535C382.389 908.689 385.592 912.541 386.925 917.161C388.998 924.441 386.264 933.216 378.31 935.009C368.615 937.194 356.56 931.462 348.491 926.584C341.962 922.638 335.731 915.293 334.43 907.738C331.738 892.398 344.305 882.086 358.265 880.144C371.885 878.249 382.692 884.837 393.177 892.693C420.222 917.765 425.467 957.583 380.131 965.164C351.343 967.592 326.086 949.893 312.926 925.901C291.879 887.531 323.35 837.084 286.537 806.239C270.904 793.14 256.907 789.274 237.383 791.181C234.874 801.868 231.115 807.11 220.73 811.089C215.549 828.284 216.354 845.068 236.999 850.815C244.112 852.844 251.744 851.906 258.154 848.215C264.636 844.539 269.602 838.499 271.541 831.255C278.4 805.63 253.289 808.505 249.52 800.512C249.17 799.768 249.484 799.59 249.794 798.916C251.436 798.147 252.084 798.198 253.933 798.638C269.18 802.78 280.68 812.81 277.382 830.408C271.475 861.928 233.451 867.839 215.681 842.762C209.597 834.177 210.779 823.25 213.178 813.067C206.35 813.908 200.312 814.621 193.397 813.713C163.47 809.784 156.307 770.364 179.516 753.239C185.82 748.587 194.13 746.711 201.818 747.807C211.621 749.206 224.998 762.877 224.75 773.083C224.707 774.099 224.277 774.347 223.475 774.861C217.084 773.448 215.245 750.253 196.453 753.617C180.289 756.51 169.593 769.961 172.359 785.913C173.614 792.881 177.619 799.052 183.472 803.036C192.481 809.18 202.527 808.439 212.661 806.625C214.23 794.068 221.022 789.439 232.085 785.64C231.914 745.381 211.341 720.125 170.489 716.27C163.445 715.606 152.731 716.433 145.512 717.09C106.432 720.716 65.5705 702.69 59.23 660.32C55.738 636.985 64.4234 613.994 89.9054 610.192ZM220.319 803.862C223.695 802.407 227.408 800.502 228.85 796.874C229.307 795.724 229.556 794.256 229.492 793.02C226.034 794.835 221.426 797.71 220.39 801.744C220.231 802.365 220.266 803.242 220.319 803.862Z"/><path fill="#314C50" d="M662.569 99.8666C664.304 106.814 664.311 114.977 656.587 118.757C648.91 122.513 639.582 114.49 636.887 107.518C633.888 101.408 634.992 91.4446 642.803 89.4057C658.048 85.4265 683.19 100.901 687.675 115.72C691.368 127.922 682.708 137.264 671.516 139.883C658.873 142.842 647.166 139.591 636.295 132.949C617.123 122.074 600.661 96.9422 614.183 75.6749C619.339 67.6122 627.487 61.9291 636.835 59.877C652.081 56.6766 672.037 61.8287 684.784 70.4237C710.759 87.9373 712.74 103.496 718.684 130.815C719.029 128.502 719.327 127.006 719.9 124.738L720.71 125.095C719.164 130.254 719.277 136.303 718.689 141.518C714.711 176.78 719.977 218.06 759.247 229.731C768.706 232.542 775.808 232.252 785.602 231.968C789.067 219.764 792.955 216.402 804.955 212.63C807.629 203.596 809.5 197.152 804.571 188.137C800.97 181.456 794.819 176.517 787.519 174.443C780.877 172.613 773.775 173.579 767.863 177.116C761.542 180.858 756.991 187.366 755.391 194.51C753.969 200.689 755.162 207.182 758.689 212.453C760.291 214.799 762.196 216.663 764.63 218.153C768.047 220.244 774.104 220.464 774.52 225.269C770.519 229.866 761.431 224.537 758.119 221.343C736.994 200.973 752.038 168.28 780.351 167.498C789.055 167.2 797.506 170.46 803.755 176.526C814.32 186.681 815.11 198.187 812.805 211.882C823.977 209.266 833.433 209.069 843.595 215.488C851.142 220.333 856.477 227.955 858.444 236.705C864.348 264.174 837.297 287.493 811.796 271.84C807.267 269.06 797.019 259.502 798.501 253.856C799.313 253.218 799.065 253.154 799.975 253.224C807.883 253.835 820.152 282.205 841.236 266.633C847.379 262.144 851.384 255.307 852.296 247.753C854.272 232.455 843.267 218.375 827.803 216.668C822.955 216.132 817.032 217.819 812.221 218.91C809.087 230.551 804.533 235.675 792.22 237.914C792.381 245.105 792.183 252.5 793.842 259.498C800.702 288.44 826.684 304.899 855.37 305.425C881.412 305.902 908.636 300.987 931.718 315.765C960.274 333.665 979.027 377.641 954.141 406.037C952.2 408.041 949.133 410.735 946.643 411.9C914.931 426.746 882.158 392.524 882.007 361.698C881.911 354.161 883.304 347.977 887.936 341.909C896.509 330.681 912.937 332.908 921.719 342.715C930.314 352.53 942.117 374.821 930.596 386.102C925.36 391.229 913.91 388.158 910.277 382.748C899.394 366.546 908.846 360.887 923.926 361.517C920.445 351.109 913.282 337.082 898.776 341.577C885.93 345.558 887.085 368.042 892.034 377.532C897.71 390.298 905.942 400.944 918.854 406.549C933.981 412.98 950.653 406.9 956.383 390.898C967.065 361.07 944.673 326.8 916.635 316.26C879.73 302.985 843.735 323.795 810.013 297.155C802.15 291.037 795.853 283.139 791.638 274.112C786.347 262.512 785.508 251.359 785.474 238.72C767.426 239.328 762.372 238.939 746.142 232.271C735.222 225.603 730.761 222.052 723.395 211.772C707.005 183.59 712.635 164.479 711.396 134.538C710.612 115.593 704.36 94.709 689.484 82.1375C677.733 72.2063 662.139 64.2007 646.249 65.3649C637.057 66.055 627.639 69.5684 621.56 76.7137C608.067 92.5764 620.462 112.755 634.171 123.294C642.776 129.909 653.751 136.074 665.033 134.714C672.564 133.807 684.081 128.971 682.266 119.55C680.393 110.654 669.765 104.435 662.569 99.8666ZM793.497 231.405C798.396 229.613 804.374 225.908 804.035 219.941L803.587 219.473C799.236 221.418 792.233 225.449 793.302 231.174L793.497 231.405Z"/><path fill="#314C50" d="M692.218 347.665C700.67 350.857 709.51 352.331 718.526 352.555L722.222 363.245L717.042 363.422C714.595 363.047 695.332 362.646 693.601 363.222C692.752 362.914 693.229 362.951 692.171 363.346L693.861 363.627C697.378 364.135 698.625 364.082 702.145 363.967C703.615 363.96 706.919 364.043 708.236 363.906C712.457 364.019 722.107 364.444 725.893 363.564C734.223 365.939 749.93 385.724 754.04 393.488L753.287 394.668C750.32 391.141 733.337 372.636 729.792 371.873L730.287 372.558C730.929 373.287 731.91 374.567 732.67 375.01C741.65 384.496 747.812 389.878 755.845 400.477C756.638 401.65 760.761 407.929 761.451 408.625L761.125 409.728C758.664 407.941 755.482 404.651 752.961 402.523C737.907 389.82 723.209 379.355 705.794 370.066L705.778 370.324L704.991 369.87C705.606 370.126 718.215 378.523 719.44 379.454C732.032 389.025 752.727 401.712 761.373 415.017C761.794 420.342 762.055 424.773 761.815 430.129C761.528 435.89 761.495 440.822 761.54 446.584C750.237 453.476 746.491 455.137 734.093 459.59C724.293 441.05 716.806 420.246 711.331 399.993C710.719 397.731 710.251 393.039 709.176 391.249C706.759 396.238 725.98 458.001 731.849 464.312C745.819 479.332 765.681 496.403 782.62 508.222L783.7 509.527C780.258 511.15 775.345 516.527 772.693 519.307C755.112 516.063 710.057 482.312 703.036 465.856C693.422 444.015 685.239 423.334 682.179 399.557C680.243 384.513 680.851 381.466 687.083 367.664C688.9 363.64 691.16 352.317 692.218 347.665Z"/><path fill="#314C50" d="M713.113 263.151C726.519 256.951 762.099 240.528 773.046 255.073C770.505 272.698 755.303 290.373 738.287 295.632C742.565 313.427 739.642 305.83 750.038 319.947C748.459 321.243 746.554 322.715 745.096 324.098C745.332 328.313 744.094 336.229 741.311 339.41C736.765 344.604 728.173 336.239 722.952 341.296C719.908 344.244 719.364 347.223 718.427 351.074C712.159 350.806 706.895 349.881 700.738 349.307C699.121 333.853 691.298 336.849 682.364 327.081C679.276 334.628 675.506 341.57 665.995 339.566L665.218 338.897C666.053 337.705 667.856 336.728 669.15 335.897C662.804 337.881 641.641 344.711 640.151 334.451C638.448 322.726 656.989 305.722 663.701 298.036C667.033 295.568 671.396 290.711 675.035 287.837C686.269 278.963 700.122 268.963 713.113 263.151Z"/><path fill="#314C50" d="M661.329 925.36C669.312 920.983 683.928 912.326 681.959 901.225C681.344 897.674 678.786 893.711 675.622 891.945C644.432 874.546 590.126 932.109 630.773 954.774C641.082 960.604 650.927 960.863 661.98 957.74C704.29 945.785 716.944 907.258 712.194 867.249C710.049 840.664 715.085 812.63 738.224 796.267C748.872 788.738 759.021 783.754 772.022 782.048C774.61 781.709 777.404 780.896 779.699 782.249C781.132 783.857 781.358 785.926 781.891 788.097C761.448 788.781 743.878 797.23 730.766 813.371C713.153 835.053 718.726 864.487 720.094 890.084C720.397 895.759 721.296 901.311 721.896 906.932L721.432 910.027C720.951 905.893 720.427 901.764 719.862 897.64C718.287 901.603 716.847 908.836 715.563 913.28C711.357 928.129 703.914 940.461 691.633 950.041C670.77 966.317 634.96 974.914 615.917 951.286C610.24 944.242 608.794 934.269 610.308 925.571C612.583 912.501 622.558 900.279 632.987 892.57C647.138 881.176 672.528 875.788 684.972 892.434C693.527 903.878 684.335 919.03 673.845 925.319C664.845 930.714 654.155 936.783 643.244 934.587C640.696 934.073 638.156 932.278 636.907 929.993C629.227 914.611 651.528 893.543 662.924 911.176C665.298 914.849 662.895 921.482 661.329 925.36Z"/><path fill="#314C50" d="M763.063 281.275C765.535 282.324 776.249 296.733 778.63 299.814C812.253 342.622 835.211 392.813 845.61 446.244C861.201 527.789 846.749 623.152 799.581 692.58C798.334 691.239 797.877 682.967 797.654 680.6C820.816 641.403 833.477 607.911 840.208 562.508C855.322 460.554 824.743 363.613 756.966 286.467C759.092 284.892 761.079 283.037 763.063 281.275Z"/><path fill="#314C50" d="M926.743 610.196C935.345 609.615 944.4 611.304 951.292 616.765C959.743 623.463 964.218 634.33 965.349 644.821C967.157 661.598 961.194 678.401 950.708 691.402C933.914 712.224 908.626 718.777 882.78 718.666C870.851 718.615 858.935 717.434 847.025 718.74C831.234 720.472 814.861 727.927 804.741 740.5C804.521 737.265 804.139 734.029 803.821 730.801C809.955 725.987 816.409 721.339 823.504 718.053C844.112 708.506 862.235 712.736 883.643 712.418C896.095 712.254 908.415 709.847 920.013 705.313C937.355 698.524 948.525 686.457 955.845 669.56C958.968 659.469 960.339 649.254 957.61 638.893C955.568 631.146 951.302 624.226 944.139 620.234C936.625 616.046 928.056 615.979 919.977 618.41C908.397 621.993 898.7 630.003 892.993 640.697C888.344 649.601 886.49 660.878 889.7 670.563C891.086 674.746 893.59 678.576 897.694 680.483C901.32 682.167 905.289 681.9 908.959 680.504C916.974 677.455 921.553 670.971 924.768 663.423C919.862 663.794 914.761 664.082 910.387 661.393C907.742 659.797 905.865 657.188 905.193 654.173C904.336 650.411 905.239 646.447 907.362 643.264C909.931 639.46 913.893 636.819 918.393 635.911C922.356 635.149 926.345 636.022 929.675 638.293C932.673 640.337 934.615 643.366 935.256 646.934C936.822 655.646 931.945 666.602 927.158 673.652C922.407 680.65 915.116 686.847 906.557 688.262C901.253 689.138 896.171 687.868 891.924 684.564C885.99 679.948 882.907 672.827 882.043 665.515C880.642 652.915 884.26 640.271 892.112 630.318C900.727 619.393 912.825 611.801 926.743 610.196Z"/><path fill="#A49855" d="M780.088 441.495C776.845 440.758 771.76 439.588 770.176 436.528C768.3 432.907 769.699 428.251 773.462 426.544C778.693 424.17 783.441 424.951 788.886 423.965C791.943 423.397 795.863 421.253 798.44 420.889C800.373 420.616 806.262 422.669 808.306 423.376C803.517 429.109 803.038 430.002 800.551 437.045C798.019 438.044 792.471 439.6 791.497 442.352C789.806 447.13 805.838 485.444 809.079 491.905C802.204 495.78 788.38 503.094 781.1 505.111C779.871 504.255 778.937 503.691 777.849 502.655C771.158 496.806 760.07 485.763 753.648 481.01C752.618 478.91 753.147 477.822 753.689 475.544C752.702 476.222 752.557 476.7 751.857 477.739L750.956 477.804C745.405 473.417 739.638 467.26 734.089 462.385C746 458.503 760.023 452.645 769.927 445.186C770.81 447.548 771.52 448.871 772.672 451.077C775.272 445.936 775.597 445.011 780.088 441.495Z"/><path fill="#314C50" d="M780.088 441.495C776.845 440.758 771.76 439.588 770.176 436.528C768.3 432.907 769.699 428.251 773.462 426.544C778.693 424.17 783.441 424.951 788.886 423.965C791.943 423.397 795.863 421.253 798.44 420.889C800.373 420.616 806.262 422.669 808.306 423.376C803.517 429.109 803.038 430.002 800.551 437.045C798.019 438.044 792.471 439.6 791.497 442.352C789.806 447.13 805.838 485.444 809.079 491.905C802.204 495.78 788.38 503.094 781.1 505.111C779.871 504.255 778.937 503.691 777.849 502.655C781.368 499.669 797.505 492.821 802.325 490.733C797.1 474.162 791.241 459.349 784.715 443.273C784.381 442.448 784.414 442.121 784.535 441.28C785.367 440.614 785.947 440.12 786.725 439.392C786.122 438.178 786.592 438.591 785.319 438.149C782.402 439.488 783.602 440.293 780.088 441.495Z"/><path fill="#314C50" d="M734.089 462.385C746 458.503 760.023 452.645 769.927 445.186C770.81 447.548 771.52 448.871 772.672 451.077C768.246 457.628 760.465 467.037 756.824 473.127C753.841 473.902 755.559 474.522 753.689 475.544C752.702 476.222 752.557 476.7 751.857 477.739L750.956 477.804C745.405 473.417 739.638 467.26 734.089 462.385Z"/><path fill="#314C50" d="M753.689 475.544C755.559 474.522 753.841 473.902 756.824 473.127C755.902 476.006 755.29 478.456 753.648 481.01C752.618 478.91 753.147 477.822 753.689 475.544Z"/><path fill="#314C50" d="M593.525 723.954C598.589 732.213 602.862 737.603 610.556 743.702L614.11 746.486C598.103 758.66 574.406 782.018 566.085 800.457C562.064 809.367 558.975 824.683 557.371 834.616C555.214 830.449 556.054 811.247 555.906 805.045C556.417 798.913 555.215 792.408 553.714 786.495C568.67 781.568 588.412 738.336 593.525 723.954Z"/><path fill="#A49855" d="M787.57 841.882C788.546 839.265 792.329 828.124 794.064 827.104L794.523 827.658C797.719 831.953 797.493 834.173 801.833 838.95C803.125 841.832 805.347 843.144 805.817 845.29C810.051 848.595 812.115 849.578 817.127 851.529C823.123 861.207 830.828 877.618 843.485 879.847L844.871 880.456C850.397 882.523 855.782 884.95 860.991 887.72C850.712 889.432 834.994 888.694 824.431 886.806C815.873 885.276 814.623 876.356 809.94 868.582C809.631 868.438 807.231 866.122 806.416 865.496C803.709 863.416 801.863 862.498 798.796 861.084C799.619 865.671 804.793 884.551 799.333 885.541C796.449 882.91 797.587 872.167 796.166 867.423C793.967 860.085 789.35 856.702 786.647 850.027C788.523 846.994 787.975 845.366 787.57 841.882Z"/><path fill="#202A2C" d="M787.57 841.882C788.546 839.265 792.329 828.124 794.064 827.104L794.523 827.658L794.703 829.903C792.426 834.023 788.636 845.797 790.277 850.277C793.318 858.577 803.265 857.872 809.119 865.136C809.2 867.28 809.052 866.503 810.49 868.475L809.94 868.582C809.631 868.438 807.231 866.122 806.416 865.496C803.709 863.416 801.863 862.498 798.796 861.084C799.619 865.671 804.793 884.551 799.333 885.541C796.449 882.91 797.587 872.167 796.166 867.423C793.967 860.085 789.35 856.702 786.647 850.027C788.523 846.994 787.975 845.366 787.57 841.882Z"/><path fill="#314C50" d="M809.119 865.136C813.556 869.844 815.77 875.969 820.297 881.162C833.085 884.543 839.552 883.422 851.734 884.505C849.965 883.599 845.915 881.789 844.871 880.456C850.397 882.523 855.782 884.95 860.991 887.72C850.712 889.432 834.994 888.694 824.431 886.806C815.873 885.276 814.623 876.356 809.94 868.582L810.49 868.475C809.052 866.503 809.2 867.28 809.119 865.136Z"/><path fill="#141410" d="M794.523 827.658C797.719 831.953 797.493 834.173 801.833 838.95C803.125 841.832 805.347 843.144 805.817 845.29C800.151 841.065 796.718 836.672 794.703 829.903L794.523 827.658Z"/><path fill="#A49855" d="M553.714 786.495C555.215 792.408 556.417 798.913 555.906 805.045C556.054 811.247 555.214 830.449 557.371 834.616L557.55 836.421C561.135 842.987 569.183 837.794 575.041 853.692C574.676 854.735 574.916 854.241 573.777 855.047C565.343 855.535 543.483 849.103 540.532 840.007C538.028 832.29 543.072 813.856 540.631 805.784L539.375 805.706C538.338 806.53 537.77 807.128 536.575 807.654C535.321 808.912 533.601 810.294 532.22 811.564C529.515 814.052 527.555 818.192 523.784 818.656L523.217 818.122C523.039 814.889 528.084 808.085 530.205 805.096C532.421 800.501 535.624 792.787 539.606 789.732C544.625 788.729 548.754 787.88 553.714 786.495Z"/><path fill="#A49855" d="M530.205 805.096C532.421 800.501 535.624 792.787 539.606 789.732C542.264 794.004 542.388 801.179 542.588 806.151C542.186 804.642 542.323 804.585 541.168 803.599C540.908 803.898 539.493 805.488 539.375 805.706C538.338 806.53 537.77 807.128 536.575 807.654C535.321 808.912 533.601 810.294 532.22 811.564C529.515 814.052 527.555 818.192 523.784 818.656L523.217 818.122C523.039 814.889 528.084 808.085 530.205 805.096Z"/><path fill="#202A2C" d="M537.857 793.339C536.568 798.1 531.348 806.243 529.293 812.117C531.512 810.649 534.196 808.713 536.575 807.654C535.321 808.912 533.601 810.294 532.22 811.564C529.515 814.052 527.555 818.192 523.784 818.656L523.217 818.122C523.039 814.889 528.084 808.085 530.205 805.096C533.274 803.31 534.675 797.239 537.857 793.339Z"/><path fill="#141410" d="M530.205 805.096C532.421 800.501 535.624 792.787 539.606 789.732C542.264 794.004 542.388 801.179 542.588 806.151C542.186 804.642 542.323 804.585 541.168 803.599C540.954 800.43 540.874 795.071 539.634 792.37L538.886 792.117L537.857 793.339C534.675 797.239 533.274 803.31 530.205 805.096Z"/><path fill="#202A2C" d="M541.168 803.599C542.323 804.585 542.186 804.642 542.588 806.151C543.091 816.649 543.14 827.163 542.736 837.665C549.819 846.802 559.491 851.962 571.003 853.358C572.345 853.509 573.692 853.621 575.041 853.692C574.676 854.735 574.916 854.241 573.777 855.047C565.343 855.535 543.483 849.103 540.532 840.007C538.028 832.29 543.072 813.856 540.631 805.784L539.375 805.706C539.493 805.488 540.908 803.898 541.168 803.599Z"/><path fill="#EDECEC" d="M555.906 805.045C556.054 811.247 555.214 830.449 557.371 834.616L557.55 836.421C553.659 832.023 553.195 809.799 555.906 805.045Z"/><path fill="#314C50" d="M705.899 776.491C709.808 776.422 713.685 776.646 717.586 776.866C708.676 784.153 700.402 791.903 691.064 798.705C659.683 821.56 618.564 839.8 580.304 846.639C579.094 846.885 577.387 847.387 576.188 847.175C573.283 846.663 570.917 842.453 569.292 840.236C617.231 832.317 669.876 809.505 705.899 776.491Z"/><path fill="#314C50" d="M796.643 763.505C800.067 780.706 803.623 796.306 807.903 813.321C814.01 837.594 820.271 864.382 842.869 879.44L843.485 879.847C830.828 877.618 823.123 861.207 817.127 851.529C812.115 849.578 810.051 848.595 805.817 845.29C805.347 843.144 803.125 841.832 801.833 838.95C801.814 835.122 798.956 827.875 797.843 823.906C792.741 805.708 783.816 786.831 779.21 768.764C785.075 767.198 790.89 765.444 796.643 763.505Z"/><path fill="#314C50" d="M776.157 520.603C778.509 517.366 782.687 512.265 785.701 509.749C787.825 512.206 792.082 514.223 795.031 515.424C799.933 517.418 805.538 516.774 810.413 518.224C814.009 519.293 816.265 524.487 819.046 526.789C824.903 531.417 832.168 532.725 835.219 540.297L834.017 540.362L833.135 540.868C832.107 542.582 833.036 546.28 833.381 548.564C823.501 543.143 821.202 544.993 811.41 542.663C799.734 539.884 785.582 528.034 776.157 520.603Z"/><path fill="#A6A4A6" fill-opacity="0.015686275" d="M703.036 465.856C710.057 482.312 755.112 516.063 772.693 519.307C775.345 516.527 780.258 511.15 783.7 509.527L782.62 508.222L784.442 507.015C786.135 507.77 785.495 507.19 786.4 508.843C785.986 509.66 786.27 509.405 785.701 509.749C782.687 512.265 778.509 517.366 776.157 520.603C785.582 528.034 799.734 539.884 811.41 542.663C821.202 544.993 823.501 543.143 833.381 548.564C833.036 546.28 832.107 542.582 833.135 540.868L834.017 540.362C833.895 542.28 834.424 548.667 833.813 549.479C830.275 550.692 826.795 546.562 824.195 546.403C810.021 545.536 800.696 541.545 789.068 533.385C783.974 529.811 777.881 523.357 772.007 521.326C769.258 520.375 767.076 519.535 764.241 518.271L762.984 518.794C753.455 514.433 728.414 493.027 718.214 487.559C717.758 487.315 716.942 488.169 716.307 488.644C706.984 515.248 698.726 530.982 686.095 556.327C672.801 583.606 658.725 610.498 643.884 636.967L642.149 636.474C642.143 636.502 647.977 625.134 648.74 623.09L648.984 622.422C649.692 623.194 649.277 622.991 650.162 623.155C651.462 621.214 651.711 617.169 652.91 614.42C657.484 612.259 658.713 605.359 660.18 600.691C662.447 599.432 662.462 599.662 662.469 597.283L661.768 597.041C661.272 598.128 660.891 598.905 660.315 599.95L659.772 599.672L659.227 597.749C655.281 597.4 654.074 597.525 650.463 595.717L659.742 595.752C660.548 594.566 661.232 593.282 661.944 592.032C663.698 591.332 664.135 591.563 665.978 591.61C667.196 590.005 670.337 585.091 670.379 583.235L669.41 582.693L668.236 584.042L667.102 583.418C676.881 565.899 686.008 547.497 695 529.559C700.685 518.218 706.583 506.637 711.537 494.972C712.331 493.103 713.809 488.629 713.37 486.757C712.047 481.109 705.44 476.903 702.01 472.437C700.982 471.1 700.075 468.956 699.415 467.44C701.021 465.841 700.426 466.34 703.036 465.856ZM664.284 595.232L665.066 594.587L664.591 594.72L664.307 592.944L663.864 592.763L662.349 593.414L662.089 594.283C663.035 595.152 662.992 595.065 664.284 595.232Z"/><path fill="#314C50" d="M828.074 748.715C832.735 748.483 837.422 749.159 841.743 750.96C848.749 753.904 854.31 759.496 857.216 766.519C860.889 775.335 860.399 785.353 856.673 794.06C853.022 802.593 846.208 809.945 837.498 813.387C829.135 816.692 820.913 815.838 812.826 812.332L811.232 804.646C816.483 807.138 821.507 808.904 827.35 809.092C829.176 808.824 831.028 808.543 832.813 808.074C839.551 806.305 845.459 801.382 848.91 795.389C852.965 788.346 854.247 780.194 852.087 772.314C850.435 766.285 846.691 760.666 841.134 757.608C833.026 753.147 824.228 754.89 816.959 759.884C814.171 761.8 811.253 764.458 808.011 765.465C806.57 765.281 806.352 765.439 805.416 764.361C805.454 762.822 805.932 761.822 806.808 760.588C811.73 753.651 819.869 749.893 828.074 748.715Z"/><path fill="#314C50" d="M671.978 272.743C677.821 266.068 694.622 250.253 705.447 254.073C707.346 254.743 713.196 257.927 713.882 259.722L713.11 260.22C707.744 261.095 709.719 263.033 704.339 265.822C701.913 267.297 691.471 273.265 690.394 274.44C686.859 277.803 687.04 276.306 683.333 277.231L683.29 279.132C682.416 280.599 670.411 289.451 668.138 291.208C667.641 282.384 667.001 280.201 671.978 272.743Z"/><path fill="#E8B754" d="M690.394 274.44C688.935 272.497 687.743 270.821 687.147 268.477L687.521 267.931L689.019 269.257C690.739 269.14 688.399 266.718 690.589 264.244C692.676 263.912 692.443 263.861 694.575 265.126L695.354 265.593C696.042 265.062 695.418 263.827 695.958 262.002L698.439 264.629C700.412 264.993 702.379 265.391 704.339 265.822C701.913 267.297 691.471 273.265 690.394 274.44Z"/><path fill="#314C50" d="M786.647 850.027C783.65 850.864 781.069 852.685 777.547 853.333C763.96 855.834 752.29 848.012 749.458 834.475C747.73 825.963 749.513 817.113 754.402 809.934C761.544 799.477 771.794 795.99 783.601 793.825L785.759 801.174C777.625 801.46 771.619 802.604 764.693 808.042C751.545 818.367 751.185 845.922 771.417 847.696C775.92 848.09 783.948 845.134 787.57 841.882C787.975 845.366 788.523 846.994 786.647 850.027Z"/><path fill="#314C50" d="M936.135 714.135C940.872 714.749 945.679 714.633 950.443 714.548C945.809 718.297 941.597 721.741 936.036 724.059C942.39 732.24 945.619 738.782 946.477 749.31C946.612 750.962 946.878 752.995 945.767 754.3L944.679 753.726C934.824 744.811 924.906 734.068 918.095 722.61C923.686 720.519 930.983 714.995 936.135 714.135Z"/><path fill="#314C50" d="M305.617 76.8082C311.779 84.7334 305.287 97.8106 303.582 106.355L303.431 107.128C293.332 99.9426 289.41 101.806 280.467 90.7028C277.65 86.4368 274.416 82.6798 271.54 78.1268C281.68 80.1149 292.817 81.757 300.323 89.0973C301.804 83.5653 302.681 81.7294 305.617 76.8082Z"/><path fill="#314C50" d="M944.979 269.892L945.511 270.55C945.505 277.752 940.435 290.825 937.485 297.342C942.458 300.116 945.794 302.869 950.04 306.661C943.16 305.918 939.427 306.255 932.575 306.631C927.892 304.444 922.903 301.933 918.005 300.395C924.322 287.611 933.925 278.471 944.979 269.892Z"/><path fill="#314C50" d="M78.326 269.348C93.3272 281.412 95.4713 284.318 105.117 301.024C100.163 302.635 96.3341 304.623 91.6883 306.902C87.7319 307.393 81.3639 305.275 73.1229 306.476C76.9561 303.333 82.2286 300.034 86.4332 297.24C80.8984 287.23 79.888 280.642 78.326 269.348Z"/><path fill="#314C50" d="M722.683 912.973C722.817 913.554 722.985 914.28 723.185 915.149C725.683 917.753 729.558 920.075 732.183 922.516C739.34 929.171 744.326 936.391 749.612 944.422C739.471 943.012 734.56 942.132 725.653 936.487C724.06 941.875 721.596 945.267 718.545 949.989C718.566 943.185 717.618 941.144 715.395 934.523C718.912 929.748 722.818 918.963 721.741 913.031L722.683 912.973Z"/><path fill="#314C50" d="M83.3914 714.73C89.1616 714.001 100.707 720.029 106.171 722.304C99.1705 730.673 92.7944 739.21 85.4034 747.294L79.464 753.283C79.6373 742.457 80.8337 732.939 86.9784 723.797C82.2566 721.367 78.2122 718.804 74.361 715.137C77.3954 715.115 80.3694 715.01 83.3914 714.73Z"/><path fill="#314C50" d="M302.773 917.948C303.135 918.721 303.043 918.41 303.208 919.145C305.847 930.899 310.505 937.071 305.573 949.629C303.845 945.046 302.135 940.508 299.997 936.095C295.866 938.51 291.668 940.505 287.113 941.983C282.014 943.51 276.809 944.732 271.651 946.048C277.093 938.804 281.192 930.899 289.053 925.9C293.505 923.068 298.298 920.795 302.773 917.948Z"/><path fill="#314C50" d="M718.067 75.2013C721.09 77.3177 723.721 83.8418 725.206 87.1981C734.188 81.8052 739.125 80.829 749.49 79.9414C745.718 84.5714 741.763 90.1838 737.886 95.0645C732.839 101.102 727.129 104.004 722.174 109.553C722.944 103.55 717.992 94.7192 715.073 89.8015C717.28 84.3743 718.1 80.9775 718.067 75.2013Z"/><path fill="#EDECEC" fill-opacity="0.019607844" d="M710.54 576.823L710.814 576.943L711.099 577.532C710.12 603.976 704.619 633.641 699.447 659.744C697.539 669.379 693.783 679.983 691.981 688.973L689.775 687.691C691.287 683.966 694.611 671.235 695.552 667.179C701.177 642.946 707.669 614.21 709.667 589.391C709.942 588.851 709.849 588.385 709.874 587.677L710.119 581.851C710.73 580.316 710.489 579.151 710.467 577.391L710.54 576.823Z"/><path fill="#EDECEC" fill-opacity="0.011764706" d="M761.373 415.017C752.727 401.712 732.032 389.025 719.44 379.454C718.215 378.523 705.606 370.126 704.991 369.87L705.778 370.324L705.794 370.066C723.209 379.355 737.907 389.82 752.961 402.523C755.482 404.651 758.664 407.941 761.125 409.728L761.451 408.625L762.341 408.41L763.035 409.038L764.38 408.676C764.432 412.091 760.978 410.63 763.109 416.362C764.379 419.777 764.501 427.302 761.815 430.129C762.055 424.773 761.794 420.342 761.373 415.017Z"/><path fill="#EDECEC" fill-opacity="0.019607844" d="M704.339 265.822C709.719 263.033 707.744 261.095 713.11 260.22C713.935 262.02 713.848 261.081 713.113 263.151C700.122 268.963 686.269 278.963 675.035 287.837C671.396 290.711 667.033 295.568 663.701 298.036L663.323 296.627C666.917 289.342 665.786 280.175 668.711 272.761C669.8 272.775 670.89 272.769 671.978 272.743C667.001 280.201 667.641 282.384 668.138 291.208C670.411 289.451 682.416 280.599 683.29 279.132L683.333 277.231C687.04 276.306 686.859 277.803 690.394 274.44C691.471 273.265 701.913 267.297 704.339 265.822Z"/><path fill="#EDECEC" fill-opacity="0.015686275" d="M237.839 243.911L239.052 244.217C240.344 247.236 238.195 269.074 240.717 270.528C243.603 268.049 244.317 265.298 247.385 262.823C248.996 263.05 248.25 262.721 249.508 264.206C238.95 275.839 231.149 285.351 221.408 297.621L220.702 295.874C221.022 295.627 221.332 295.403 221.607 295.103C237.7 277.554 238.459 265.536 237.839 243.911Z"/><path fill="#EDECEC" fill-opacity="0.027450981" d="M723.395 211.772C730.761 222.052 735.222 225.603 746.142 232.271L743.886 233.452C737.047 227.2 726.621 219.43 719.3 213.765C720.561 212.058 721.439 212.044 723.395 211.772Z"/><path fill="#A6A4A6" fill-opacity="0.011764706" d="M285.552 229.906C279.345 235.381 273.22 240.405 267.185 246.107L266.409 244.487C267.4 242.416 268.882 239.067 271.147 238.174L271.407 237.413L269.905 237.108C276.66 234.882 279.317 233.475 285.552 229.906Z"/><path fill="#EDECEC" fill-opacity="0.05882353" d="M730.287 372.558L729.792 371.873C733.337 372.636 750.32 391.141 753.287 394.668C754.508 396.243 755.884 398.193 757.359 399.479L757.057 400.185L755.845 400.477C747.812 389.878 741.65 384.496 732.67 375.01C732.039 373.838 731.349 373.468 730.287 372.558Z"/><path fill="#EDECEC" fill-opacity="0.015686275" d="M593.525 723.954L594.136 723.312C600.608 731.396 604.099 735.439 612.338 741.989C611.842 742.456 610.972 743.22 610.556 743.702C602.862 737.603 598.589 732.213 593.525 723.954Z"/><path fill="#5F6263" fill-opacity="0.011764706" d="M302.131 211.052C304.521 213.05 305.063 212.499 307.936 211.407L309.105 212.002C304.648 215.439 300.456 218.015 295.897 221.793C298.43 217.98 299.979 215.123 302.131 211.052Z"/><path fill="#EDECEC" fill-opacity="0.039215688" d="M738.63 528.663C746.615 531.095 750.457 529.971 756.99 525.102L758.025 527.899C756.5 528.019 756.785 527.716 755.833 528.413C753.934 527.888 742.841 534.094 738.63 528.663Z"/><path fill="#B1B6B4" fill-opacity="0.17254902" d="M693.861 363.627L692.171 363.346C693.229 362.951 692.752 362.914 693.601 363.222C695.332 362.646 714.595 363.047 717.042 363.422C715.235 363.53 709.531 363.664 708.236 363.906C706.919 364.043 703.615 363.96 702.145 363.967C698.838 363.269 697.151 363.449 693.861 363.627Z"/><path fill="#141410" fill-opacity="0.80392158" d="M719.9 124.738C720.268 120.085 721.082 115.477 722.33 110.979C722.54 113.577 721.127 122.151 720.71 125.095L719.9 124.738Z"/><path fill="#EDECEC" fill-opacity="0.011764706" d="M722.222 363.245C723.489 363.294 724.698 363.24 725.893 363.564C722.107 364.444 712.457 364.019 708.236 363.906C709.531 363.664 715.235 363.53 717.042 363.422L722.222 363.245Z"/><path fill="#314C50" fill-opacity="0.95686275" d="M754.04 393.488C755.236 395.459 756.501 397.349 757.359 399.479C755.884 398.193 754.508 396.243 753.287 394.668L754.04 393.488Z"/><path fill="#A6A4A6" fill-opacity="0.90588236" d="M721.896 906.932C722.173 908.785 722.596 911.14 722.683 912.973L721.741 913.031L721.432 910.027L721.896 906.932Z"/><path fill="#788088" fill-opacity="0.32941177" d="M710.674 571.5L711.575 571.499L711.386 574.187C711.103 575.323 710.981 575.782 710.814 576.943L710.54 576.823C710.448 575.116 710.597 573.225 710.674 571.5Z"/><path fill="#788088" fill-opacity="0.6901961" d="M765.783 441.588L765.461 441.817L765.035 441.312C764.926 439.188 764.76 438.211 765.213 436.169L765.948 436.37C765.458 438.916 765.371 439.086 765.783 441.588Z"/><path fill="#B1B6B4" fill-opacity="0.68627453" d="M693.861 363.627C697.151 363.449 698.838 363.269 702.145 363.967C698.625 364.082 697.378 364.135 693.861 363.627Z"/><path fill="#5F747D" fill-opacity="0.51372552" d="M710.884 567.567L711.648 568.114L711.575 571.499L710.674 571.5C710.729 570.188 710.799 568.877 710.884 567.567Z"/><path fill="#5F747D" fill-opacity="0.41176471" d="M711.021 562.801L711.622 562.952C711.621 564.611 711.577 566.472 711.648 568.114L710.884 567.567L711.021 562.801Z"/><path fill="#141410" fill-opacity="0.019607844" d="M402.042 123.127C402.955 123.412 402.499 123.189 403.374 123.866L401.93 125.778L401.297 125.881L400.949 125.311L402.042 123.127Z"/><path fill="#5F6263" d="M765.783 441.588C765.371 439.086 765.458 438.916 765.948 436.37C766.375 438.842 766.368 439.15 765.783 441.588Z"/><path fill="#5F6263" fill-opacity="0.73725492" d="M711.021 562.801C711.126 561.171 710.848 561.088 711.682 560.033C711.923 561.541 711.918 561.451 711.622 562.952L711.021 562.801Z"/><path fill="#5F747D" fill-opacity="0.58431375" d="M710.467 577.391C710.489 579.151 710.73 580.316 710.119 581.851C709.817 580.25 710.182 579.006 710.467 577.391Z"/><path fill="#5F6263" fill-opacity="0.77254903" d="M711.386 574.187C711.347 575.593 711.366 576.134 711.099 577.532L710.814 576.943C710.981 575.782 711.103 575.323 711.386 574.187Z"/><path fill="#B1B6B4" fill-opacity="0.39607844" d="M730.287 372.558C731.349 373.468 732.039 373.838 732.67 375.01C731.91 374.567 730.929 373.287 730.287 372.558Z"/><path fill="#788088" fill-opacity="0.53725493" d="M709.874 587.677C709.849 588.385 709.942 588.851 709.667 589.391C709.583 588.52 709.673 588.574 709.874 587.677Z"/></svg>